<?xml version="1.0" encoding="utf-8"?>
<!-- Generator: Adobe Illustrator 16.0.0, SVG Export Plug-In . SVG Version: 6.00 Build 0)  -->
<!DOCTYPE svg PUBLIC "-//W3C//DTD SVG 1.1//EN" "http://www.w3.org/Graphics/SVG/1.1/DTD/svg11.dtd">
<svg version="1.1" id="Layer_1" xmlns="http://www.w3.org/2000/svg" xmlns:xlink="http://www.w3.org/1999/xlink" x="0px" y="0px"
	 width="149.5px" height="86.5px" viewBox="0 0 149.5 86.5" enable-background="new 0 0 149.5 86.5" xml:space="preserve">
<path d="M149.5,10.5c0,5.523-4.478,10-10,10h-128c-5.523,0-10-4.477-10-10l0,0c0-5.523,4.477-10,10-10h128
	C145.022,0.5,149.5,4.977,149.5,10.5L149.5,10.5z"/>
<path d="M149.5,74.5c0,5.523-4.478,10-10,10h-128c-5.523,0-10-4.477-10-10l0,0c0-5.523,4.477-10,10-10h128
	C145.022,64.5,149.5,68.977,149.5,74.5L149.5,74.5z"/>
<path d="M149.5,42.5c0,5.523-4.478,10-10,10h-128c-5.523,0-10-4.477-10-10l0,0c0-5.523,4.477-10,10-10h128
	C145.022,32.5,149.5,36.977,149.5,42.5L149.5,42.5z"/>
</svg>
