<?xml version="1.0" encoding="utf-8"?>
<!-- Generator: Adobe Illustrator 16.0.0, SVG Export Plug-In . SVG Version: 6.00 Build 0)  -->
<!DOCTYPE svg PUBLIC "-//W3C//DTD SVG 1.1//EN" "http://www.w3.org/Graphics/SVG/1.1/DTD/svg11.dtd">
<svg version="1.1" id="Layer_1" xmlns="http://www.w3.org/2000/svg" xmlns:xlink="http://www.w3.org/1999/xlink" x="0px" y="0px"
	 width="28.5px" height="28px" viewBox="0 0 28.5 28" enable-background="new 0 0 28.5 28" xml:space="preserve">
<g>
	<path fill-rule="evenodd" clip-rule="evenodd" d="M26.57,23.381l-4.33-4.33c1.189-1.7,1.89-3.77,1.89-6c0-5.8-4.7-10.5-10.5-10.5
		s-10.5,4.7-10.5,10.5s4.7,10.5,10.5,10.5c2.229,0,4.3-0.7,6-1.89l4.33,4.33c0.72,0.72,1.89,0.72,2.61,0
		C27.29,25.271,27.29,24.101,26.57,23.381z M20.07,16.872l-0.28-0.28c-0.729-0.72-1.9-0.72-2.62,0c-0.721,0.729-0.721,1.89,0,2.61
		l0.29,0.29c-1.12,0.68-2.431,1.06-3.83,1.06c-4.14,0-7.5-3.36-7.5-7.5c0-4.141,3.36-7.5,7.5-7.5s7.5,3.359,7.5,7.5
		C21.13,14.452,20.75,15.751,20.07,16.872z"/>
</g>
</svg>
