<?xml version="1.0" encoding="utf-8"?>
<!-- Generator: Adobe Illustrator 16.0.0, SVG Export Plug-In . SVG Version: 6.00 Build 0)  -->
<!DOCTYPE svg PUBLIC "-//W3C//DTD SVG 1.1//EN" "http://www.w3.org/Graphics/SVG/1.1/DTD/svg11.dtd">
<svg version="1.1" id="Layer_1" xmlns="http://www.w3.org/2000/svg" xmlns:xlink="http://www.w3.org/1999/xlink" x="0px" y="0px"
	 width="1117.561px" height="353.982px" viewBox="0 218.599 1117.561 353.982" enable-background="new 0 218.599 1117.561 353.982"
	 xml:space="preserve">
<path d="M616.019,386.016c-1.388,1-2.839,1.848-4.352,2.54c-1.513,0.694-3.407,1.277-5.684,1.749
	c-2.277,0.473-4.651,0.708-7.122,0.708c-5.579,0-10.459-1.125-14.638-3.373s-7.476-5.469-9.891-9.659
	c-2.415-4.193-3.623-9.064-3.623-14.616c0-5.524,1.026-10.194,3.081-14.011c2.056-3.816,4.942-6.731,8.662-8.745
	c3.721-2.013,7.927-3.02,12.618-3.02c3.108,0,6.102,0.452,8.975,1.354c2.873,0.902,5.323,2.158,7.35,3.769l0.417,7.078l0.333,0.333
	h1.957l0.292-0.333c0.556-6.135,1.151-9.979,1.79-11.534l-0.292-0.417c-2.415-1.083-5.427-2.013-9.036-2.79
	c-3.608-0.778-7.26-1.166-10.952-1.166c-6.385,0-12.139,1.173-17.262,3.52c-5.122,2.346-9.244,5.886-12.368,10.618
	c-3.123,4.732-4.685,10.264-4.685,16.593c0,9.188,3.13,16.628,9.391,22.318c6.261,5.691,14.401,8.537,24.426,8.537
	c6.994,0,13.574-1.567,19.737-4.706l1.583-3.872L616.019,386.016z"/>
<path d="M628.221,365.487c1.306-3.109,2.056-4.81,2.249-5.102c0.194-0.291,0.95-0.673,2.27-1.144
	c1.318-0.474,2.784-0.708,4.394-0.708c3.082,0,5.539,0.84,7.371,2.519c1.833,1.682,2.749,4.574,2.749,8.683
	c-11.383,1.609-18.351,3.56-20.905,5.85c-2.554,2.29-3.831,5.476-3.831,9.557c0,2.055,0.423,3.804,1.271,5.247
	c0.847,1.442,2.067,2.567,3.664,3.373c1.596,0.805,3.505,1.207,5.726,1.207c1.806,0,3.472-0.319,4.998-0.958l9.078-7.079
	l-0.167,6.704l0.625,0.583c2.332-0.166,4.33-0.249,5.997-0.249c1.748,0,3.637,0.083,5.663,0.249l0.333-0.333v-1.666l-0.333-0.374
	l-2.374-0.208c-0.832-0.084-1.401-0.188-1.707-0.312c-0.306-0.124-0.576-0.367-0.812-0.729c-0.235-0.36-0.354-1.388-0.354-3.082
	v-12.407l0.208-8.37c0-2.388-0.472-4.477-1.416-6.267s-2.471-3.282-4.581-4.477c-2.109-1.193-4.761-1.79-7.953-1.79
	c-4.664,0-9.468,1.832-14.409,5.496v5.163l0.333,0.417l1.625,0.417L628.221,365.487z M647.252,383.518
	c-3.609,4.275-7.26,6.412-10.952,6.412c-4.304,0-6.455-2.165-6.455-6.495c0-3.137,0.958-5.454,2.874-6.953
	c1.915-1.499,6.76-2.901,14.533-4.206V383.518z"/>
<path d="M666.262,338.005c0.403,0.111,0.688,0.277,0.854,0.5c0.167,0.222,0.299,0.952,0.396,2.188
	c0.099,1.234,0.188,3.38,0.271,6.433l0.166,7.994v22.07c0,6.438-0.264,12.187-0.79,17.237l1.374,0.542l3.372-3.165
	c1.693,1.166,3.332,2.021,4.914,2.562c1.583,0.54,3.346,0.812,5.29,0.812c2.498,0,4.53-0.354,6.1-1.062
	c1.568-0.707,4.282-2.463,8.143-5.268c1.972-1.442,3.346-2.638,4.122-3.581c1.306-1.639,2.437-3.72,3.395-6.245
	c0.958-2.527,1.437-5.192,1.437-7.995c0-2.943-0.575-5.711-1.729-8.309c-1.151-2.594-2.915-4.67-5.288-6.225
	c-2.374-1.555-5.129-2.332-8.267-2.332c-1.722,0-3.366,0.222-4.936,0.667c-1.568,0.444-2.805,0.957-3.706,1.541
	c-0.901,0.583-2.076,1.589-3.52,3.019c-1.443,1.432-2.43,2.492-2.956,3.187v-10.618c0-9.605,0.151-16.004,0.458-19.196l-0.791-0.5
	c-3.638,1.443-8.106,2.471-13.409,3.081l-0.334,0.375v1.749l0.375,0.375C664.173,337.839,665.859,337.895,666.262,338.005z
	 M678.881,362.053c2.095-1.625,4.519-2.437,7.268-2.437c2.332,0,4.428,0.597,6.286,1.791c1.86,1.193,3.257,2.922,4.187,5.185
	c0.931,2.264,1.396,4.865,1.396,7.809c0,4.69-1.117,8.562-3.353,11.616c-2.235,3.056-5.323,4.581-9.266,4.581
	c-1.666,0-3.275-0.298-4.831-0.896c-1.556-0.599-2.824-1.305-3.811-2.124c-0.986-0.818-1.541-1.43-1.667-1.832
	c-0.125-0.401-0.187-1.256-0.187-2.562V367.57C675.458,365.515,676.784,363.677,678.881,362.053z"/>
<path d="M718.046,365.487c1.305-3.109,2.054-4.81,2.249-5.102c0.194-0.291,0.951-0.673,2.271-1.144
	c1.317-0.474,2.782-0.708,4.394-0.708c3.081,0,5.538,0.84,7.371,2.519c1.831,1.682,2.748,4.574,2.748,8.683
	c-11.383,1.609-18.353,3.56-20.905,5.85c-2.555,2.29-3.831,5.476-3.831,9.557c0,2.055,0.423,3.804,1.271,5.247
	c0.846,1.442,2.066,2.567,3.664,3.373c1.597,0.805,3.505,1.207,5.727,1.207c1.804,0,3.47-0.319,4.997-0.958l9.078-7.079
	l-0.167,6.704l0.625,0.583c2.332-0.166,4.331-0.249,5.996-0.249c1.75,0,3.637,0.083,5.664,0.249l0.333-0.333v-1.666l-0.333-0.374
	l-2.374-0.208c-0.833-0.084-1.401-0.188-1.707-0.312c-0.307-0.124-0.576-0.367-0.812-0.729c-0.234-0.36-0.354-1.388-0.354-3.082
	v-12.407l0.209-8.37c0-2.388-0.475-4.477-1.416-6.267c-0.944-1.791-2.473-3.282-4.581-4.477c-2.11-1.193-4.762-1.79-7.954-1.79
	c-4.664,0-9.467,1.832-14.409,5.496v5.163l0.333,0.417l1.624,0.417L718.046,365.487z M737.077,383.518
	c-3.609,4.275-7.26,6.412-10.952,6.412c-4.303,0-6.455-2.165-6.455-6.495c0-3.137,0.958-5.454,2.873-6.953
	c1.916-1.499,6.761-2.901,14.534-4.206V383.518L737.077,383.518z"/>
<path d="M752.402,357.368l-0.334,0.333v1.791l0.375,0.333l3.498,0.042c1.083,0,1.805,0.103,2.166,0.312
	c0.359,0.208,0.574,0.535,0.645,0.979c0.07,0.443,0.16,1.624,0.271,3.539c0.11,1.915,0.166,3.428,0.166,4.538v8.203
	c0,1.555-0.062,3.853-0.188,6.892s-0.235,4.831-0.333,5.372c-0.097,0.541-0.277,0.942-0.541,1.207
	c-0.265,0.266-0.569,0.438-0.916,0.521s-1.867,0.208-4.56,0.374l-0.376,0.333v1.749l0.376,0.375c3.47-0.222,6.801-0.333,9.993-0.333
	c3.221,0,6.565,0.111,10.036,0.333l0.333-0.375v-1.749l-0.375-0.333c-2.637-0.166-4.137-0.284-4.498-0.354
	c-0.359-0.068-0.664-0.229-0.916-0.479c-0.25-0.25-0.437-0.65-0.562-1.207c-0.125-0.555-0.243-2.49-0.354-5.81
	c-0.11-3.315-0.167-5.28-0.167-5.892v-7.244c0-2.222,0.062-3.67,0.188-4.353c0.125-0.68,0.493-1.416,1.104-2.207
	s1.556-1.638,2.831-2.54c1.277-0.9,2.431-1.499,3.457-1.791c1.027-0.292,2.264-0.438,3.706-0.438c1.806,0,3.359,0.327,4.664,0.979
	c1.306,0.652,2.347,1.568,3.123,2.748c0.778,1.182,1.242,2.492,1.396,3.936c0.151,1.443,0.229,3.804,0.229,7.079v5.454
	c0,5.804-0.181,10.509-0.541,14.116l0.499,0.458c3.332-0.222,5.359-0.333,6.08-0.333c1.25,0,3.638,0.111,7.163,0.333l0.333-0.333
	v-1.791l-0.333-0.333c-2.915,0-4.637-0.25-5.163-0.749c-0.528-0.5-0.819-2.067-0.875-4.706c-0.139-6.439-0.208-9.896-0.208-10.367
	v-7.328c0-2.359-0.194-4.346-0.583-5.955s-1.09-3.003-2.104-4.186c-1.015-1.18-2.514-2.199-4.497-3.06
	c-1.985-0.861-4.032-1.291-6.144-1.291c-1.25,0-2.471,0.139-3.665,0.417c-1.192,0.278-2.047,0.541-2.561,0.791
	c-0.515,0.25-1.062,0.639-1.646,1.166c-1.999,1.887-4.107,3.748-6.329,5.58c0.057-3.026,0.166-5.468,0.333-7.329l-0.792-0.541
	C762.174,355.688,757.705,356.729,752.402,357.368L752.402,357.368z M791.672,335.757h-2.166c-1.082,2.943-2.665,4.414-4.747,4.414
	c-1.109,0-3.096-0.708-5.955-2.124c-2.831-1.416-5.122-2.124-6.871-2.124c-2.082,0-3.97,0.89-5.663,2.665
	c-1.693,1.777-2.791,3.873-3.289,6.288l0.248,0.292h2.084c1.082-2.804,2.706-4.206,4.871-4.206c1.14,0,3.097,0.708,5.872,2.124
	c2.776,1.416,5.054,2.124,6.829,2.124c2.14,0,4.033-0.88,5.686-2.645c1.651-1.764,2.77-3.936,3.353-6.518L791.672,335.757z"/>
<path d="M810.328,365.487c1.305-3.109,2.055-4.81,2.249-5.102c0.192-0.291,0.95-0.673,2.269-1.144
	c1.319-0.474,2.784-0.708,4.396-0.708c3.081,0,5.538,0.84,7.371,2.519c1.832,1.682,2.748,4.574,2.748,8.683
	c-11.384,1.609-18.352,3.56-20.905,5.85s-3.831,5.476-3.831,9.557c0,2.055,0.424,3.804,1.27,5.247
	c0.849,1.442,2.068,2.567,3.665,3.373c1.598,0.805,3.506,1.207,5.727,1.207c1.806,0,3.471-0.319,4.997-0.958l9.079-7.079
	l-0.166,6.704l0.624,0.583c2.332-0.166,4.331-0.249,5.997-0.249c1.748,0,3.637,0.083,5.662,0.249l0.334-0.333v-1.666l-0.334-0.374
	l-2.372-0.208c-0.834-0.084-1.403-0.188-1.708-0.312c-0.307-0.124-0.576-0.367-0.812-0.729c-0.235-0.36-0.354-1.388-0.354-3.082
	v-12.407l0.208-8.37c0-2.388-0.473-4.477-1.416-6.267c-0.943-1.791-2.472-3.282-4.58-4.477c-2.11-1.193-4.763-1.79-7.955-1.79
	c-4.664,0-9.466,1.832-14.408,5.496v5.163l0.334,0.417l1.623,0.417L810.328,365.487z M829.359,383.518
	c-3.609,4.275-7.261,6.412-10.952,6.412c-4.305,0-6.455-2.165-6.455-6.495c0-3.137,0.958-5.454,2.873-6.953
	c1.916-1.499,6.761-2.901,14.534-4.206V383.518L829.359,383.518z"/>
<path d="M893.574,337.839c2.97,0,4.656,0.056,5.059,0.167c0.403,0.111,0.688,0.286,0.854,0.521c0.168,0.235,0.307,0.984,0.417,2.248
	s0.193,3.504,0.25,6.725l0.166,9.286c-3.192-1.749-6.552-2.624-10.077-2.624c-2.526,0-5.074,0.715-7.643,2.145
	c-2.567,1.431-4.941,2.811-7.12,4.144c-2.18,1.333-3.859,3.45-5.039,6.35c-1.181,2.902-1.771,5.919-1.771,9.058
	c0,3.08,0.569,6.086,1.707,9.015c1.139,2.929,3.048,5.337,5.727,7.225c2.68,1.888,5.935,2.831,9.766,2.831
	c2.358,0,4.179-0.318,5.456-0.957c0.692-0.501,2.165-1.75,4.414-3.748c1.526-1.359,3.054-2.596,4.58-3.706
	c-0.027,0.916-0.041,1.444-0.041,1.583c0,1.082-0.042,2.983-0.125,5.704l0.458,0.458c2.775-0.193,4.914-0.291,6.413-0.291
	c1.666,0,3.998,0.098,6.996,0.291l0.375-0.375v-1.582l-0.375-0.334c-2.666-0.221-4.282-0.457-4.852-0.707
	c-0.57-0.25-0.979-0.568-1.229-0.958c-0.25-0.389-0.425-1.63-0.521-3.727c-0.097-2.096-0.146-4.546-0.146-7.349v-27.274
	c0-9.605,0.152-16.004,0.459-19.196l-0.791-0.5c-3.638,1.443-8.106,2.471-13.409,3.081l-0.334,0.375v1.749L893.574,337.839z
	 M900.319,371.026c0,4.219-0.083,7.12-0.249,8.702c-0.167,1.582-0.758,3.165-1.771,4.747c-1.014,1.581-2.305,2.84-3.873,3.77
	c-1.567,0.931-3.366,1.395-5.394,1.395c-3.721,0-6.81-1.471-9.267-4.414c-2.457-2.941-3.686-6.843-3.686-11.699
	c0-2.915,0.444-5.615,1.333-8.1c0.888-2.482,2.339-4.356,4.352-5.622c2.014-1.263,4.187-1.895,6.518-1.895
	c2.109,0,4.213,0.513,6.31,1.541c2.098,1.025,4.005,2.512,5.727,4.455V371.026L900.319,371.026z"/>
<path d="M953.416,387.099c-2,1.193-3.895,2.123-5.686,2.789c-1.791,0.667-3.657,1-5.602,1c-4.107,0-7.579-1.359-10.411-4.08
	s-4.273-6.954-4.33-12.7h13.367c1.027,0,3.138-0.069,6.33-0.208c3.192-0.14,5.732-0.416,7.62-0.833l0.458-0.458
	c0.084-0.805,0.125-1.638,0.125-2.498c0-2.748-0.514-5.344-1.541-7.787c-1.027-2.442-2.812-4.448-5.351-6.017
	c-2.541-1.567-5.477-2.353-8.809-2.353c-2.443,0-4.72,0.417-6.83,1.249c-2.109,0.833-4.107,1.943-5.996,3.331
	c-1.888,1.388-3.228,2.65-4.019,3.789s-1.548,2.881-2.271,5.226c-0.722,2.348-1.083,4.977-1.083,7.893
	c0,4.385,0.938,8.133,2.812,11.242c1.875,3.108,4.304,5.315,7.288,6.62c2.984,1.306,6.143,1.958,9.474,1.958
	c1.777,0,3.797-0.277,6.061-0.834c2.263-0.555,4.837-1.763,7.725-3.622l1.333-2.998L953.416,387.099z M930.157,360.283
	c1.847-2.359,4.422-3.54,7.726-3.54c3.025,0,5.414,1.048,7.162,3.145c1.749,2.097,2.623,5.295,2.623,9.598
	c0,0.36-0.014,0.875-0.041,1.541c-0.833,0.139-3.179,0.208-7.037,0.208c-1.611,0-4.089-0.057-7.435-0.167
	c-3.345-0.111-5.269-0.208-5.768-0.292C927.389,366.14,928.312,362.643,930.157,360.283z"/>
<path d="M445.373,505.353c-1.303,0-2.656,0-4.057,0c-12.824,0-25.471-0.05-37.942-0.15c-12.472-0.1-25.071-0.247-37.792-0.45
	c-0.803,0-1.352-0.174-1.653-0.525c-0.3-0.351-0.25-0.774,0.151-1.276c6.71-11.72,13.75-23.188,21.113-34.407
	c7.363-11.217,14.85-22.486,22.464-33.808c3.605-5.409,7.288-10.867,11.044-16.376c3.757-5.509,7.387-11.021,10.895-16.529
	c-0.301,0-0.652,0-1.052,0c-0.3,0-0.652,0.052-1.052,0.15c-0.202,0.102-0.551,0.15-1.051,0.15c-0.504,0-0.902,0-1.203,0H392.48
	c-2.005,0-3.959,0.501-5.861,1.503c-1.904,1.001-3.733,2.278-5.484,3.83c-1.754,1.556-3.433,3.206-5.034,4.959
	c-1.604,1.753-3.156,3.381-4.658,4.882l-1.353,1.354c-0.502,0.503-1.127,0.627-1.878,0.377s-1.078-0.728-0.977-1.428
	c0.199-3.807,0.549-7.514,1.051-11.119c0.5-3.605,1.15-7.212,1.954-10.817l0.451-2.103c0.2-0.902,0.951-1.253,2.254-1.056
	c2.202,0.504,4.508,0.93,6.912,1.277c2.405,0.354,4.659,0.527,6.762,0.527h60.857c0.802,0,1.375,0.2,1.729,0.602
	c0.35,0.4,0.324,0.853-0.075,1.353c-6.412,11.922-13.726,24.065-21.938,36.436c-8.216,12.373-16.479,24.567-24.793,36.587
	c-3.307,4.809-6.538,9.416-9.692,13.822c-3.156,4.41-6.288,9.017-9.392,13.824c0.399,0.1,0.826,0.125,1.277,0.072
	c0.451-0.047,0.925-0.122,1.428-0.224c0.301-0.099,0.7-0.15,1.202-0.15c0.5,0,0.951,0,1.352,0l38.469-0.149
	c1.901,0,3.854-0.525,5.86-1.577c2.003-1.053,3.881-2.38,5.635-3.983c1.751-1.601,3.354-3.353,4.808-5.258
	c1.451-1.902,2.679-3.705,3.683-5.409c0.5-0.602,1.176-0.799,2.028-0.602c0.851,0.202,1.277,0.652,1.277,1.353
	c-0.202,3.606-0.502,7.19-0.901,10.743c-0.4,3.559-1.201,7.19-2.403,10.895"/>
<path d="M511.788,496.036l-1.201,0.602c-0.601,0.202-1.754,0.302-3.457,0.302c-1.704,0-3.531-0.023-5.485-0.075
	c-1.952-0.05-3.807-0.1-5.559-0.15c-1.753-0.049-2.98-0.075-3.681-0.075c-1.604,0-3.207,0.026-4.81,0.075
	c-1.603,0.052-3.207,0.075-4.808,0.075c-3.607,0-7.213,0.025-10.82,0.075c-3.605,0.052-7.164-0.023-10.668-0.227
	c-0.901-0.1-1.329-0.575-1.278-1.428c0.051-0.849,0.526-1.277,1.429-1.277c2.804-0.099,4.659-0.978,5.56-2.629
	c0.901-1.652,1.354-3.831,1.354-6.535v-61.604c0-1.703-0.478-2.829-1.429-3.381c-0.954-0.55-1.979-0.925-3.081-1.128
	c-0.802-0.199-1.628-0.398-2.479-0.602c-0.852-0.199-1.678-0.549-2.479-1.051c-0.804-0.398-1.053-0.902-0.752-1.503
	c0.302-0.602,0.901-0.902,1.804-0.902c0.9,0,2.078,0.025,3.53,0.075c1.451,0.052,3.081,0.075,4.885,0.075
	c2.903,0.102,6.06,0.176,9.466,0.227c3.404,0.053,6.86,0.074,10.369,0.074c5.009,0,9.564-0.099,13.674-0.301
	c4.106-0.199,6.86-0.549,8.266-1.05c0.699-0.201,1.3-0.152,1.804,0.147c0.499,0.302,0.698,0.702,0.6,1.202
	c-0.202,1.904-0.502,3.656-0.901,5.259c-0.4,1.604-0.803,3.207-1.202,4.809c-0.202,0.702-0.353,1.353-0.449,1.954
	c-0.102,0.601-0.252,1.202-0.451,1.803c-0.202,0.702-0.804,1.052-1.803,1.052c-1.001,0-1.555-0.398-1.653-1.202
	c-0.101-1.701-0.503-3.055-1.202-4.058c-0.702-0.999-1.604-1.775-2.705-2.327c-1.104-0.549-2.354-0.927-3.757-1.128
	c-1.404-0.199-2.806-0.3-4.207-0.3c-0.803,0-1.578,0.025-2.33,0.075c-0.751,0.052-1.528,0.075-2.329,0.075
	c-0.702,0-1.454,0.025-2.254,0.073c-0.803,0.053-1.604,0.075-2.405,0.075h-2.704v28.699h18.032c0.501,0,1.15-0.174,1.954-0.526
	c0.799-0.35,1.652-0.677,2.555-0.977h-0.149c0.8-0.399,1.526-0.952,2.179-1.653c0.651-0.699,1.277-1.15,1.878-1.353
	c0.7-0.198,1.277-0.124,1.728,0.226c0.451,0.354,0.625,0.777,0.526,1.276c-0.202,1.304-0.376,2.855-0.526,4.658
	c-0.149,1.804-0.325,3.356-0.525,4.657c-0.203,1.202-0.4,2.405-0.601,3.606c-0.202,1.201-0.401,2.505-0.602,3.906
	c-0.102,0.503-0.451,0.853-1.052,1.051c-0.602,0.202-1.153,0.102-1.652-0.3c-1.201-0.699-1.779-1.177-1.729-1.428
	c0.049-0.249,0.021-0.625-0.076-1.127c-0.3-0.901-0.626-1.752-0.977-2.555c-0.353-0.801-0.677-1.301-0.977-1.502
	c-0.503-0.399-1.502-0.727-3.006-0.979c-1.503-0.247-3.181-0.425-5.034-0.524c-1.854-0.101-3.682-0.15-5.484-0.15
	c-1.804,0-3.307,0-4.509,0h-1.953v29.149c1.602,2.205,3.854,3.808,6.763,4.809c2.903,1.001,5.659,1.501,8.264,1.501
	c3.205,0,6.162-0.772,8.866-2.328c2.705-1.553,4.508-4.079,5.409-7.588c0.099-0.3,0.35-0.525,0.752-0.677
	c0.398-0.15,0.801-0.198,1.202-0.15c0.397,0.053,0.774,0.202,1.127,0.452c0.35,0.25,0.475,0.525,0.376,0.824L511.788,496.036z"/>
<path d="M621.482,417.755c-0.901,0.103-1.652,0.251-2.255,0.451h0.15c-1.202,0.301-2.404,0.702-3.606,1.202
	c-1.201,0.502-1.804,1.302-1.804,2.403c0,3.206,0,6.361,0,9.467c0,3.005,0.05,6.062,0.15,9.165c0,2.905,0.021,6.086,0.075,9.541
	c0.05,3.455,0.073,6.588,0.073,9.391c0,6.412-0.101,12.748-0.3,19.007c-0.201,6.262-0.602,12.545-1.202,18.856
	c-0.102,0.601-0.449,0.978-1.052,1.126c-0.602,0.15-1.201,0.075-1.804-0.225c-11.22-8.416-21.814-17.402-31.781-26.971
	c-9.969-9.565-19.759-19.207-29.376-28.924h0.149l-7.813-7.662c-0.101,0.9-0.148,1.803-0.148,2.705c0,0.899,0,1.854,0,2.854
	c0,3.811,0.073,7.564,0.225,11.271c0.15,3.707,0.323,7.462,0.526,11.268c0.198,3.707,0.35,7.415,0.449,11.119
	c0.1,3.708,0.15,7.464,0.15,11.27c0,1.705,0.15,3.082,0.451,4.133s0.725,1.828,1.275,2.329c0.551,0.502,1.151,0.852,1.804,1.052
	c0.649,0.202,1.328,0.353,2.028,0.45c0.902,0.201,1.854,0.377,2.855,0.525c1,0.149,1.953,0.577,2.854,1.277
	c0.803,0.4,1.053,0.9,0.752,1.501c-0.301,0.604-0.9,0.902-1.804,0.902c-1.705-0.101-3.455-0.125-5.259-0.075
	c-1.803,0.052-3.557,0.075-5.26,0.075h-5.259c-2.307,0-4.584-0.05-6.838-0.151c-2.255-0.097-4.434-0.396-6.535-0.898
	c-0.902-0.2-1.278-0.7-1.127-1.504c0.147-0.802,0.676-1.201,1.576-1.201h1.804c1.702,0.202,3.155-0.227,4.357-1.277
	s1.802-2.577,1.802-4.584v-70.918c0-0.801,0.251-1.477,0.752-2.028c0.5-0.549,1.002-1.024,1.505-1.428
	c0.3-0.197,0.676-0.273,1.126-0.224c0.45,0.052,0.773,0.175,0.978,0.375c11.52,10.616,22.938,21.312,34.26,32.077
	c11.319,10.77,22.591,21.662,33.811,32.682c0.099-3.104,0.099-6.135,0-9.091c-0.103-2.953-0.201-5.984-0.301-9.091
	c-0.2-2.503-0.353-5.158-0.45-7.964c-0.102-2.803-0.15-5.458-0.15-7.964c0-1.601,0.024-3.155,0.075-4.657
	c0.05-1.503,0.075-3.055,0.075-4.657v-9.165c0-1.602-0.202-2.879-0.603-3.83c-0.4-0.952-0.9-1.654-1.502-2.104
	c-0.601-0.451-1.255-0.751-1.953-0.901c-0.702-0.15-1.403-0.274-2.104-0.374c-1.904-0.2-3.456-0.65-4.658-1.354
	c-0.701-0.302-0.9-0.752-0.601-1.353c0.301-0.603,0.85-0.902,1.651-0.902l5.411-0.15c3.703-0.098,7.362-0.073,10.969,0.075
	c3.605,0.15,7.212,0.327,10.818,0.525L621.482,417.755L621.482,417.755z"/>
<path d="M715.998,496.788c-2.405,0.102-4.861,0.149-7.363,0.149c-1.804,0-3.558-0.022-5.26-0.074
	c-1.705-0.051-3.456-0.125-5.26-0.227c-0.803,0-1.328-0.25-1.577-0.752c-0.251-0.499-0.075-0.999,0.524-1.503l1.354-1.651
	c-2.005-4.706-3.959-9.215-5.86-13.521c-1.903-4.305-3.906-8.814-6.01-13.523h-24.192c-0.804,1.604-1.704,3.658-2.705,6.16
	c-1.004,2.505-2.006,5.012-3.006,7.514c-1.003,2.505-1.83,4.835-2.479,6.985c-0.651,2.155-0.976,3.683-0.976,4.582
	c0,1.104,0.649,1.831,1.951,2.179c1.303,0.354,2.455,0.628,3.457,0.827c1.001,0.103,1.479,0.577,1.429,1.429
	c-0.053,0.853-0.578,1.276-1.577,1.276L632,496.188l0.601-2.704c1,0.3,2.053,0.25,3.156-0.15c1.103-0.398,2.152-1.027,3.155-1.878
	c1.001-0.852,1.928-1.826,2.779-2.931c0.851-1.102,1.525-2.104,2.027-3.005c2.003-4.809,4.081-9.741,6.236-14.8
	c2.153-5.058,4.23-9.992,6.236-14.8c2.902-7.112,5.835-14.173,8.791-21.187c2.953-7.011,5.935-14.023,8.939-21.033
	c0.399-0.701,1.15-0.902,2.255-0.604c0.698,0.302,1.4,0.952,2.104,1.953c0.7,1.002,1.401,2.13,2.104,3.381
	c0.699,1.254,1.353,2.58,1.952,3.982c0.604,1.404,1.151,2.655,1.653,3.756v-0.151c0.301,0.702,0.55,1.329,0.751,1.881
	c0.2,0.552,0.4,0.976,0.602,1.275v-0.149l6.612,15.477c3.104,7.212,6.236,14.498,9.392,21.86
	c3.156,7.361,6.637,14.498,10.444,21.411c1.201,2.306,2.854,3.809,4.958,4.507c2.104,0.701,4.257,1.153,6.461,1.352v2.705
	C720.806,496.538,718.401,496.689,715.998,496.788z M674.224,433.982c-1.705,4.408-3.229,8.59-4.583,12.547
	c-1.354,3.958-2.98,8.188-4.884,12.694h19.083L674.224,433.982z"/>
<path d="M763.479,497.389c-1.803-0.099-3.58-0.099-5.334,0c-1.754,0.103-3.581,0.103-5.483,0l-5.71-0.149
	c-0.803,0-1.805,0.052-3.006,0.149c-1.202,0.103-2.479,0.203-3.831,0.301c-1.354,0.101-2.655,0.127-3.907,0.074
	c-1.254-0.05-2.23-0.224-2.931-0.524c-0.901-0.3-1.152-0.924-0.75-1.878c0.397-0.951,1.051-1.326,1.952-1.126
	c0.5,0.199,0.926,0.224,1.276,0.072c0.352-0.147,0.625-0.224,0.827-0.224c0.801,0,1.477-0.325,2.028-0.979
	c0.549-0.649,0.977-1.478,1.277-2.479c0.301-0.999,0.524-2.002,0.677-3.006c0.148-0.999,0.226-1.9,0.226-2.704v-61.152
	c0-2.001-0.827-3.429-2.479-4.28c-1.653-0.852-3.382-1.376-5.185-1.578c-1.003-0.099-1.479-0.526-1.428-1.277
	c0.049-0.751,0.574-1.176,1.577-1.277c2.404-0.197,4.81-0.197,7.213,0c2.405,0.202,4.757,0.303,7.062,0.303
	c2.304,0,4.558-0.101,6.763-0.303c2.202-0.197,4.456-0.197,6.762,0c0.902,0.103,1.376,0.504,1.428,1.202
	c0.049,0.702-0.377,1.154-1.276,1.354c-2.006,0.301-3.707,0.751-5.109,1.353c-1.404,0.602-2.104,2.104-2.104,4.507v60.702
	c0,0.402,0.073,1.004,0.226,1.803c0.15,0.804,0.324,1.653,0.525,2.557c0.199,0.898,0.45,1.753,0.752,2.554
	c0.3,0.803,0.549,1.354,0.751,1.652c0.301,0.101,0.752,0.201,1.353,0.301c0.602,0.102,1.15,0.15,1.653,0.15
	c1.101,0,2.077,0.074,2.93,0.225c0.85,0.15,1.677,0.578,2.479,1.276L763.479,497.389z"/>
<path d="M862.806,475.303c-2.906,5.511-6.812,9.969-11.72,13.372c-4.911,3.406-10.621,5.858-17.131,7.361
	c-6.514,1.504-13.325,2.255-20.438,2.255c-2.906,0-5.837-0.075-8.791-0.226c-2.954-0.151-5.886-0.325-8.789-0.525
	c-3.208-0.2-6.562-0.401-10.068-0.602c-3.508-0.2-6.813-0.249-9.917-0.15c-1.003,0-1.554-0.4-1.652-1.202
	c-0.102-0.801,0.35-1.301,1.354-1.502c3.004-0.5,4.932-1.402,5.784-2.705c0.851-1.301,1.275-3.656,1.275-7.062v-61.003
	c0-2.002-0.601-3.254-1.803-3.756c-1.202-0.499-2.403-0.852-3.605-1.052c-0.901-0.2-1.778-0.426-2.631-0.676
	c-0.852-0.249-1.427-0.676-1.727-1.278c-0.203-0.5-0.151-0.925,0.15-1.276c0.3-0.351,0.8-0.525,1.502-0.525
	c1.4,0,2.779,0.026,4.132,0.075c1.353,0.052,2.729,0.127,4.133,0.226c1.803,0.103,3.705,0.202,5.71,0.3
	c2.003,0.103,3.854,0.151,5.561,0.151c4.306,0,8.663-0.151,13.073-0.451c2.104-0.099,4.38-0.198,6.836-0.301
	c2.454-0.099,4.733-0.15,6.838-0.15c4.006,0,8.564,0.827,13.675,2.479c5.109,1.652,9.967,3.907,14.575,6.762
	c4.606,2.854,8.59,6.235,11.945,10.143c3.356,3.906,5.283,8.063,5.786,12.471c0.199,1.404,0.301,2.855,0.301,4.357
	c0,1.402,0,2.805,0,4.207C867.164,463.032,865.71,469.794,862.806,475.303z M849.808,442.322c-2.455-4.858-5.734-8.866-9.842-12.021
	c-4.108-3.156-8.866-5.534-14.275-7.137c-5.409-1.602-11.07-2.405-16.979-2.405c-2.005,0-4.007,0.103-6.011,0.302
	c-2.004,0.201-4.008,0.602-6.011,1.201v57.997c0,2.806,0.376,5.011,1.127,6.612c0.752,1.603,1.853,2.804,3.307,3.604
	c1.45,0.805,3.179,1.304,5.184,1.503c2.004,0.202,4.258,0.301,6.763,0.301c5.309,0,10.418-0.602,15.327-1.804
	c4.906-1.201,9.216-3.129,12.923-5.783c3.705-2.652,6.662-6.06,8.864-10.218c2.202-4.155,3.308-9.24,3.308-15.251
	C853.489,452.815,852.262,447.182,849.808,442.322z"/>
<path d="M948.459,496.788c-2.404,0.102-4.86,0.149-7.364,0.149c-1.802,0-3.556-0.022-5.259-0.074
	c-1.704-0.051-3.457-0.125-5.26-0.227c-0.803,0-1.328-0.25-1.578-0.752c-0.251-0.499-0.074-0.999,0.527-1.503l1.353-1.651
	c-2.006-4.706-3.96-9.215-5.861-13.521c-1.902-4.305-3.905-8.814-6.011-13.523h-24.191c-0.804,1.604-1.704,3.658-2.704,6.16
	c-1.005,2.505-2.007,5.012-3.008,7.514c-1.002,2.505-1.827,4.835-2.479,6.985c-0.652,2.155-0.978,3.683-0.978,4.582
	c0,1.104,0.65,1.831,1.954,2.179c1.302,0.354,2.452,0.628,3.455,0.827c1,0.103,1.479,0.577,1.428,1.429
	c-0.052,0.853-0.577,1.276-1.577,1.276l-26.446-0.45l0.601-2.704c1,0.3,2.054,0.25,3.156-0.15c1.102-0.398,2.152-1.027,3.155-1.878
	c1-0.852,1.927-1.826,2.779-2.931c0.85-1.102,1.525-2.104,2.028-3.005c2.002-4.809,4.08-9.741,6.235-14.8
	c2.153-5.058,4.231-9.992,6.236-14.8c2.903-7.112,5.835-14.173,8.791-21.187c2.952-7.011,5.936-14.023,8.939-21.033
	c0.399-0.701,1.15-0.902,2.254-0.604c0.7,0.302,1.401,0.952,2.104,1.953c0.7,1.002,1.402,2.13,2.104,3.381
	c0.699,1.254,1.354,2.58,1.953,3.982c0.602,1.404,1.15,2.655,1.653,3.756v-0.151c0.3,0.702,0.549,1.329,0.751,1.881
	c0.199,0.552,0.398,0.976,0.602,1.275v-0.149l6.611,15.477c3.104,7.212,6.234,14.498,9.393,21.86
	c3.154,7.361,6.635,14.498,10.442,21.411c1.202,2.306,2.854,3.809,4.959,4.507c2.104,0.701,4.256,1.153,6.461,1.352v2.705
	C953.268,496.538,950.862,496.689,948.459,496.788z M906.685,433.982c-1.703,4.408-3.229,8.59-4.583,12.547
	c-1.352,3.958-2.981,8.188-4.884,12.694h19.083L906.685,433.982z"/>
<path d="M401.032,555.425c-1.146-0.062-2.275-0.112-3.388-0.145c-1.112-0.034-2.242-0.05-3.387-0.05
	c-0.852,0-1.718,0.008-2.602,0.023c-0.883,0.018-1.75,0.042-2.601,0.073c-0.099,0-0.155-0.058-0.172-0.171
	c-0.017-0.115,0.025-0.188,0.123-0.222c0.164-0.066,0.327-0.114,0.491-0.147c0.164-0.032,0.327-0.05,0.491-0.05
	c0.425,0,0.786-0.173,1.08-0.517c0.294-0.343,0.532-0.76,0.711-1.25c0.18-0.492,0.302-0.988,0.368-1.498
	c0.065-0.507,0.098-0.939,0.098-1.301v-13.939h-20.617v14.038c0,1.508,0.369,2.635,1.105,3.388c0.736,0.754,1.824,1.194,3.265,1.325
	c0.098,0,0.147,0.065,0.147,0.194c0,0.132-0.049,0.199-0.147,0.199c-0.655,0-1.326,0-2.013,0s-1.375,0.016-2.062,0.046
	c-0.49,0-1.055,0.01-1.693,0.025c-0.639,0.017-1.204,0.025-1.694,0.025c-0.556,0-1.112,0-1.668,0c-0.557,0-1.129-0.018-1.718-0.052
	c-0.165,0-0.369-0.005-0.614-0.022c-0.246-0.017-0.45-0.022-0.613-0.022c-0.099,0-0.156-0.06-0.172-0.175
	c-0.016-0.113,0.025-0.188,0.123-0.22c0.752-0.131,1.35-0.285,1.792-0.468c0.441-0.18,0.776-0.407,1.005-0.686
	c0.229-0.277,0.376-0.646,0.442-1.104c0.065-0.459,0.098-1.062,0.098-1.816v-28.271c0-1.014-0.401-1.772-1.202-2.282
	c-0.803-0.507-1.662-0.774-2.578-0.81v-0.394c1.014,0.065,2.013,0.123,2.994,0.173c0.982,0.049,1.964,0.073,2.946,0.073
	c0.752,0,1.505-0.01,2.257-0.024c0.753-0.015,1.505-0.04,2.258-0.074c0.164,0,0.344-0.008,0.54-0.023
	c0.196-0.018,0.376-0.024,0.541-0.024c0.098,0,0.146,0.066,0.146,0.197c0,0.132-0.048,0.195-0.146,0.195
	c-0.884,0.033-1.653,0.303-2.308,0.81c-0.655,0.508-0.981,1.221-0.981,2.136v11.634h20.567v-11.389c0-0.556-0.074-0.998-0.221-1.324
	c-0.147-0.327-0.361-0.59-0.638-0.784c-0.278-0.197-0.598-0.346-0.958-0.442c-0.36-0.099-0.736-0.212-1.129-0.345l-0.981-0.294
	c-0.098-0.033-0.14-0.105-0.123-0.221c0.016-0.114,0.073-0.173,0.171-0.173c1.048,0.066,2.111,0.123,3.191,0.173
	c1.081,0.048,2.143,0.072,3.19,0.072c1.702,0,3.437-0.048,5.204-0.147c0.099,0,0.154,0.059,0.172,0.174
	c0.016,0.115-0.024,0.187-0.122,0.221c-0.982,0.195-1.776,0.468-2.381,0.812c-0.606,0.342-0.908,1.088-0.908,2.231v27.24
	c0,1.571,0.343,2.733,1.031,3.486c0.687,0.752,1.799,1.259,3.338,1.521L401.032,555.425z"/>
<path d="M429.036,544.506c-0.77,1.619-1.791,3.019-3.068,4.197c-1.274,1.178-2.757,2.095-4.441,2.746
	c-1.687,0.656-3.46,0.983-5.326,0.983c-1.539,0-3.134-0.378-4.786-1.13s-3.167-1.733-4.541-2.944
	c-1.374-1.21-2.511-2.584-3.411-4.124c-0.899-1.535-1.351-3.092-1.351-4.661c0-2.39,0.221-4.444,0.663-6.161
	c0.441-1.717,1.153-3.174,2.136-4.368c0.981-1.193,2.273-2.175,3.878-2.944c1.602-0.77,3.565-1.396,5.89-1.891l0.64-0.048
	c2.094-0.165,4.042,0.14,5.841,0.906c1.799,0.77,3.37,1.851,4.712,3.24c1.341,1.391,2.396,3.035,3.166,4.935
	c0.769,1.896,1.154,3.892,1.154,5.987C430.19,541.127,429.805,542.886,429.036,544.506z M426.189,534.369
	c-0.476-1.604-1.179-3.043-2.111-4.317c-0.934-1.277-2.079-2.308-3.437-3.094c-1.357-0.785-2.921-1.178-4.688-1.178
	c-1.669,0-3.15,0.302-4.442,0.909c-1.294,0.604-2.381,1.438-3.265,2.502c-0.883,1.063-1.563,2.291-2.037,3.682
	c-0.475,1.392-0.711,2.871-0.711,4.442c0,1.636,0.245,3.256,0.736,4.857c0.49,1.604,1.219,3.052,2.184,4.345
	c0.966,1.292,2.136,2.34,3.51,3.143c1.375,0.801,2.945,1.202,4.712,1.202c1.67,0,3.143-0.319,4.418-0.957
	c1.276-0.64,2.348-1.49,3.216-2.553c0.866-1.063,1.521-2.3,1.963-3.706c0.441-1.406,0.663-2.896,0.663-4.469
	C426.901,537.576,426.664,535.975,426.189,534.369z"/>
<path d="M452.329,527.252c-0.033,0.854-0.147,1.639-0.344,2.357c-0.033,0.098-0.1,0.146-0.196,0.146
	c-0.066,0-0.116-0.05-0.148-0.146c-0.261-1.146-0.776-1.907-1.545-2.283c-0.77-0.376-1.678-0.564-2.725-0.564h-4.32v21.059
	c0,0.947,0.294,1.75,0.884,2.403c0.589,0.655,1.342,1.063,2.259,1.227c0.098,0.033,0.139,0.107,0.123,0.221
	c-0.018,0.117-0.075,0.174-0.173,0.174c-0.852-0.063-1.686-0.123-2.503-0.174c-0.817-0.048-1.652-0.072-2.504-0.072
	c-0.654,0-1.293,0.018-1.915,0.05c-0.622,0.034-1.26,0.081-1.915,0.146c-0.098,0.033-0.154-0.014-0.171-0.146
	c-0.017-0.131,0.024-0.212,0.123-0.245c0.556-0.132,0.989-0.271,1.301-0.417c0.312-0.148,0.548-0.335,0.712-0.564
	c0.163-0.229,0.262-0.531,0.295-0.908c0.031-0.375,0.048-0.843,0.048-1.397v-21.304h-5.891c-0.784,0-1.473,0.264-2.062,0.785
	c-0.588,0.525-1.016,1.13-1.275,1.816c-0.034,0.099-0.099,0.133-0.197,0.099c-0.098-0.034-0.146-0.099-0.146-0.196l-0.099-0.64
	c0-0.521,0.064-1.021,0.196-1.496c0.13-0.473,0.262-0.938,0.393-1.397c0.064-0.229,0.131-0.45,0.196-0.662s0.131-0.435,0.195-0.663
	c0.065-0.162,0.164-0.195,0.295-0.099c0.491,0.327,0.989,0.531,1.498,0.613c0.506,0.083,1.055,0.122,1.645,0.122h15.708
	c0.359,0,0.817-0.081,1.375-0.246c0.13-0.03,0.245-0.062,0.344-0.098c0.098-0.032,0.212-0.064,0.343-0.099l0.245,0.195
	C452.377,525.602,452.361,526.402,452.329,527.252z"/>
<path d="M484.234,550.051c-0.817,1.263-1.857,2.351-3.117,3.266c-1.259,0.916-2.65,1.621-4.172,2.108
	c-1.521,0.493-2.97,0.736-4.345,0.736c-0.688,0-1.391-0.072-2.11-0.218c-0.721-0.148-1.374-0.396-1.963-0.739
	c-0.59-0.343-1.072-0.785-1.448-1.324c-0.376-0.54-0.564-1.218-0.564-2.036c0-0.59,0.057-1.146,0.173-1.67
	c0.113-0.522,0.236-1.027,0.368-1.521c0.065-0.261,0.122-0.531,0.171-0.812c0.049-0.276,0.105-0.546,0.172-0.809
	c0.032-0.099,0.105-0.142,0.221-0.123c0.114,0.017,0.172,0.073,0.172,0.172v0.539c0,1.015,0.172,1.915,0.515,2.7
	c0.345,0.787,0.826,1.439,1.448,1.964c0.621,0.522,1.342,0.926,2.16,1.202s1.718,0.418,2.7,0.418c0.817,0,1.651-0.142,2.503-0.418
	c0.851-0.276,1.62-0.671,2.308-1.178c0.688-0.508,1.251-1.131,1.693-1.864c0.441-0.737,0.663-1.546,0.663-2.432
	c0-0.815-0.205-1.659-0.613-2.527c-0.41-0.866-0.95-1.726-1.621-2.578c-0.671-0.851-1.432-1.699-2.282-2.55
	c-0.852-0.851-1.719-1.688-2.602-2.503c-0.917-0.885-1.833-1.775-2.75-2.677c-0.917-0.899-1.734-1.823-2.454-2.772
	s-1.31-1.914-1.768-2.896c-0.458-0.98-0.688-1.963-0.688-2.943c0-1.505,0.425-2.8,1.276-3.88c0.85-1.078,1.897-1.962,3.142-2.649
	c1.243-0.688,2.593-1.188,4.049-1.496c1.457-0.311,2.807-0.467,4.051-0.467c1.701,0,3.305,0.212,4.812,0.637
	c0.098,0,0.147,0.067,0.147,0.199c-0.1,1.045-0.205,2.095-0.32,3.14c-0.114,1.049-0.253,2.096-0.417,3.143
	c0,0.065-0.009,0.123-0.024,0.173c-0.017,0.048-0.024,0.104-0.024,0.17c0,0.099-0.057,0.157-0.171,0.171
	c-0.115,0.02-0.189-0.021-0.222-0.12c-0.165-0.786-0.417-1.523-0.761-2.209c-0.343-0.688-0.77-1.284-1.276-1.792
	c-0.508-0.507-1.097-0.915-1.769-1.229c-0.67-0.311-1.416-0.466-2.232-0.466c-0.852,0-1.645,0.146-2.381,0.442
	c-0.736,0.294-1.375,0.694-1.915,1.203c-0.541,0.505-0.966,1.12-1.275,1.84c-0.312,0.719-0.468,1.504-0.468,2.354
	c0,0.884,0.188,1.712,0.565,2.479c0.375,0.771,0.866,1.522,1.472,2.258c0.604,0.735,1.309,1.456,2.111,2.159
	c0.801,0.704,1.627,1.4,2.479,2.086c0.916,0.785,1.832,1.579,2.749,2.382c0.916,0.802,1.733,1.646,2.455,2.525
	c0.72,0.884,1.302,1.835,1.743,2.848c0.442,1.016,0.664,2.127,0.664,3.339C485.463,547.377,485.052,548.792,484.234,550.051z"/>
<path d="M504.532,534.469c-0.376,1.014-0.908,1.922-1.595,2.725c-0.688,0.803-1.506,1.445-2.454,1.938
	c-0.95,0.489-1.981,0.735-3.095,0.735c-0.653,0-1.356-0.081-2.109-0.246c-0.099-0.03-0.141-0.104-0.123-0.221
	c0.017-0.112,0.072-0.171,0.172-0.171h0.835c1.865,0,3.335-0.58,4.416-1.741c1.082-1.161,1.622-2.66,1.622-4.491
	c0-0.817-0.132-1.629-0.395-2.432c-0.262-0.8-0.639-1.528-1.129-2.184c-0.49-0.654-1.088-1.186-1.792-1.595
	c-0.704-0.41-1.498-0.614-2.379-0.614c-0.917,0-1.768,0.195-2.554,0.589v21.646c0,1.079,0.246,1.851,0.736,2.307
	c0.491,0.458,1.292,0.722,2.404,0.786c0.1,0,0.147,0.064,0.147,0.195s-0.048,0.194-0.147,0.194H491.5c-0.558,0-1.113,0-1.669,0
	c-0.524,0-1.063-0.014-1.619-0.047c-0.1,0-0.156-0.057-0.172-0.174c-0.017-0.112,0.025-0.188,0.123-0.221
	c0.589-0.099,1.046-0.229,1.374-0.393c0.327-0.163,0.564-0.375,0.712-0.638s0.229-0.596,0.245-1.006
	c0.016-0.408,0.023-0.894,0.023-1.448V527.84c0-0.688-0.294-1.253-0.883-1.695c-0.589-0.44-1.213-0.742-1.866-0.905
	c-0.099-0.033-0.14-0.105-0.122-0.222c0.015-0.112,0.073-0.173,0.172-0.173c1.014,0.099,1.996,0.156,2.944,0.173
	c0.949,0.018,1.898,0.025,2.849,0.025h4.319c1.111,0,2.11,0.098,2.993,0.294c0.884,0.195,1.636,0.531,2.259,1.007
	c0.622,0.474,1.097,1.12,1.425,1.938c0.325,0.818,0.489,1.849,0.489,3.093C505.097,532.423,504.909,533.453,504.532,534.469z"/>
<path d="M532.413,552.311c-0.605,0.146-1.201,0.222-1.793,0.222c-0.98,0-1.863-0.18-2.649-0.54c-0.783-0.36-1.487-0.819-2.11-1.375
	c-0.622-0.558-1.201-1.194-1.741-1.913c-0.54-0.721-1.058-1.457-1.547-2.209c-0.459-0.688-0.941-1.367-1.447-2.039
	c-0.509-0.669-1.064-1.274-1.669-1.815c-0.606-0.539-1.261-0.973-1.964-1.301c-0.705-0.326-1.497-0.491-2.38-0.491
	c-0.265,0-0.525,0-0.787,0c-0.229,0-0.475,0.034-0.735,0.1v6.972c0,0.947,0.285,1.758,0.858,2.43c0.57,0.67,1.334,1.055,2.281,1.152
	v0.391c-0.753-0.063-1.495-0.121-2.232-0.17c-0.735-0.051-1.48-0.072-2.231-0.072c-0.755,0-1.481,0.033-2.185,0.099
	c-0.705,0.063-1.433,0.145-2.187,0.245c-0.098,0.031-0.171-0.008-0.221-0.123c-0.049-0.115-0.023-0.204,0.073-0.271
	c0.688-0.327,1.26-0.816,1.717-1.472c0.459-0.654,0.688-1.358,0.688-2.111v-19.583c0-0.753-0.271-1.415-0.81-1.987
	c-0.542-0.573-1.188-0.959-1.938-1.155c-0.1-0.03-0.141-0.105-0.123-0.221c0.016-0.114,0.074-0.172,0.171-0.172h9.671
	c1.015,0,2.012,0.123,2.994,0.369c0.98,0.244,1.849,0.63,2.602,1.153c0.751,0.521,1.357,1.21,1.816,2.061
	c0.458,0.854,0.688,1.865,0.688,3.044c0,1.571-0.436,3.062-1.304,4.468c-0.866,1.405-1.84,2.617-2.918,3.63
	c0.357,0.395,0.751,0.893,1.176,1.5c0.426,0.604,0.884,1.234,1.376,1.89c0.72,0.98,1.479,1.985,2.282,3.019
	c0.801,1.029,1.645,1.962,2.528,2.797c0.885,0.836,1.799,1.489,2.749,1.965c0.947,0.473,1.913,0.646,2.895,0.515l0.148,0.393
	C533.6,551.958,533.019,552.162,532.413,552.311z M521.368,530.786c-0.244-0.851-0.612-1.619-1.104-2.308
	c-0.491-0.688-1.098-1.25-1.817-1.691c-0.719-0.441-1.556-0.663-2.503-0.663c-0.392,0-0.785,0.021-1.179,0.073
	c-0.393,0.05-0.769,0.155-1.129,0.317v12.225c0.557,0.098,1.096,0.162,1.621,0.195c0.522,0.032,1.062,0.048,1.618,0.048
	c1.834,0,3.102-0.497,3.805-1.495c0.702-0.998,1.056-2.382,1.056-4.147C521.736,532.489,521.614,531.639,521.368,530.786z"/>
<path d="M543.753,551.868c-0.606-0.018-1.22-0.024-1.841-0.024c-0.884,0-1.751,0.008-2.603,0.024
	c-0.853,0.018-1.719,0.042-2.602,0.073c-0.098,0-0.156-0.057-0.172-0.173c-0.018-0.112,0.024-0.188,0.122-0.221
	c0.815-0.295,1.416-0.743,1.792-1.35c0.376-0.604,0.564-1.334,0.564-2.186v-20.368c0-0.753-0.254-1.277-0.761-1.57
	c-0.508-0.295-1.104-0.49-1.792-0.591c-0.099-0.031-0.14-0.104-0.123-0.22c0.017-0.112,0.072-0.173,0.171-0.173
	c0.688,0.067,1.375,0.114,2.062,0.147c0.687,0.034,1.391,0.048,2.109,0.048c0.688,0,1.375-0.014,2.062-0.048
	c0.687-0.033,1.357-0.099,2.012-0.195c0.1-0.033,0.164,0.018,0.195,0.146c0.034,0.131,0,0.212-0.097,0.244
	c-0.722,0.165-1.302,0.36-1.744,0.59c-0.44,0.229-0.662,0.771-0.662,1.62v20.222c0,1.244,0.238,2.137,0.713,2.676
	c0.474,0.54,1.301,0.858,2.479,0.957v0.391C544.988,551.891,544.357,551.886,543.753,551.868z"/>
<path d="M576.494,525.462c-0.019-0.017-0.06-0.009-0.122,0.022c-0.459,0.132-0.942,0.296-1.449,0.491
	c-0.508,0.196-0.761,0.539-0.761,1.032l0.049,11.828v2.011c0,1.898-0.031,3.772-0.099,5.622c-0.065,1.849-0.18,3.704-0.343,5.569
	c0,0.066-0.041,0.123-0.123,0.173c-0.081,0.048-0.155,0.041-0.222-0.024c-1.57-1.342-3.142-2.791-4.713-4.346
	c-1.57-1.553-3.117-3.141-4.639-4.759c-1.521-1.62-3.02-3.256-4.491-4.909c-1.472-1.652-2.88-3.266-4.222-4.834
	c-0.458-0.491-0.867-0.956-1.228-1.397c-0.359-0.442-0.771-0.909-1.228-1.4c-0.1,0.883-0.147,1.736-0.147,2.554
	c0,1.242,0.017,2.484,0.049,3.729c0.033,1.244,0.082,2.484,0.146,3.729c0.064,1.245,0.116,2.487,0.146,3.731
	c0.033,1.244,0.052,2.502,0.052,3.777c0,0.559,0.048,1.007,0.146,1.352c0.099,0.344,0.223,0.612,0.368,0.81
	c0.146,0.196,0.327,0.336,0.539,0.417c0.213,0.082,0.435,0.141,0.663,0.171c0.263,0.067,0.522,0.142,0.787,0.222
	c0.261,0.084,0.569,0.255,0.932,0.517c0.065,0.065,0.089,0.142,0.073,0.221c-0.018,0.082-0.073,0.121-0.171,0.121
	c-0.329-0.029-0.647-0.063-0.958-0.098c-0.312-0.031-0.63-0.064-0.957-0.098c-0.459-0.064-0.924-0.114-1.399-0.146
	c-0.474-0.032-0.94-0.049-1.398-0.049c-0.588,0-1.194,0.041-1.814,0.122c-0.622,0.082-1.245,0.171-1.865,0.269
	c-0.1,0.034-0.173,0-0.223-0.098c-0.048-0.098-0.042-0.179,0.025-0.244c0.261-0.229,0.499-0.41,0.711-0.539
	c0.213-0.131,0.418-0.246,0.614-0.344c0.393-0.198,0.742-0.467,1.055-0.812c0.312-0.344,0.467-0.892,0.467-1.645v-22.97l0.393-0.785
	c0.032-0.064,0.081-0.115,0.148-0.148c0.063-0.029,0.113-0.014,0.146,0.052c3.565,3.696,7.021,7.338,10.357,10.92
	c3.338,3.583,6.725,7.291,10.161,11.119v-0.148c0-1.505-0.009-2.995-0.025-4.467c-0.015-1.474-0.041-2.979-0.073-4.517
	c-0.031-1.406-0.064-2.902-0.098-4.49c-0.033-1.586-0.049-3.084-0.049-4.491c0-0.557-0.058-1.006-0.172-1.351
	s-0.271-0.604-0.467-0.786c-0.196-0.179-0.41-0.302-0.639-0.366s-0.459-0.114-0.688-0.147c-0.262-0.03-0.499-0.071-0.711-0.123
	c-0.214-0.048-0.401-0.152-0.565-0.317c-0.064-0.065-0.074-0.146-0.023-0.247c0.05-0.099,0.105-0.129,0.172-0.099
	c0.752,0.099,1.456,0.148,2.11,0.148c0.687,0,1.374,0,2.062,0c0.425,0,0.857-0.008,1.3-0.024c0.442-0.018,0.894-0.008,1.352,0.024
	c0.163,0,0.345,0.008,0.54,0.023c0.194,0.017,0.375,0.025,0.538,0.025l0.1,0.393C576.551,525.47,576.511,525.479,576.494,525.462z"
	/>
<path d="M603.663,539.548c-0.491,0.279-0.736,0.744-0.736,1.398v9.13c0,0.033-0.032,0.081-0.097,0.146
	c-1.213,0.915-2.553,1.48-4.026,1.692c-1.473,0.216-2.929,0.319-4.368,0.319c-2.291,0-4.395-0.304-6.308-0.906
	c-1.915-0.606-3.567-1.505-4.959-2.702c-1.391-1.193-2.471-2.706-3.238-4.538c-0.771-1.832-1.152-3.977-1.152-6.432
	c0-2.159,0.383-4.071,1.152-5.741c0.769-1.669,1.824-3.067,3.165-4.197c1.343-1.13,2.912-1.979,4.713-2.553
	c1.8-0.571,3.716-0.859,5.743-0.859c1.146,0,2.291,0.075,3.438,0.222c1.145,0.147,2.272,0.305,3.386,0.468
	c0.459,0.065,0.884,0.123,1.277,0.171c0.392,0.051,0.801,0.107,1.228,0.173c0.13,0,0.196,0.063,0.196,0.195
	c0,0.885-0.066,1.727-0.196,2.527c-0.131,0.803-0.264,1.628-0.393,2.479c-0.034,0.165-0.06,0.343-0.075,0.539
	c-0.018,0.197-0.04,0.377-0.071,0.54c-0.034,0.1-0.1,0.147-0.198,0.147c-0.098,0-0.163-0.049-0.195-0.147
	c-0.195-1.047-0.539-1.946-1.03-2.699c-0.49-0.752-1.104-1.373-1.841-1.864c-0.735-0.49-1.555-0.851-2.454-1.08
	c-0.901-0.229-1.841-0.344-2.824-0.344c-1.667,0-3.223,0.279-4.661,0.835c-1.441,0.557-2.692,1.332-3.756,2.331
	c-1.063,0.998-1.897,2.191-2.504,3.585c-0.605,1.389-0.908,2.919-0.908,4.588c0,1.831,0.335,3.565,1.006,5.202
	c0.672,1.636,1.597,3.059,2.773,4.271c1.179,1.211,2.561,2.17,4.148,2.872c1.586,0.703,3.297,1.055,5.13,1.055
	c0.752,0,1.547-0.104,2.381-0.319c0.834-0.212,1.528-0.563,2.087-1.054v-8.149c0-0.556-0.172-0.931-0.516-1.127
	c-0.346-0.198-0.729-0.36-1.155-0.491c-0.163-0.063-0.353-0.132-0.563-0.196c-0.213-0.064-0.434-0.165-0.663-0.293
	c-0.098-0.067-0.13-0.142-0.098-0.222c0.032-0.082,0.098-0.124,0.196-0.124c2.879,0,5.742,0.05,8.591,0.146l0.048,0.395
	C604.711,539.066,604.153,539.271,603.663,539.548z"/>
<path d="M645.117,551.746c-0.41-0.034-0.843-0.064-1.301-0.1c-0.263-0.032-0.531-0.059-0.811-0.073
	c-0.279-0.017-0.563-0.024-0.859-0.024c-0.753,0-1.506,0.032-2.259,0.1c-0.752,0.063-1.505,0.132-2.258,0.195
	c-0.098,0-0.163-0.051-0.196-0.147c-0.032-0.098,0-0.18,0.1-0.246l1.915-0.932c-0.559-1.538-1.139-3.052-1.744-4.542
	c-0.604-1.486-1.187-3.018-1.742-4.588h-7.606c-0.164,0.428-0.401,1.057-0.713,1.891c-0.312,0.833-0.612,1.702-0.908,2.602
	c-0.294,0.899-0.558,1.749-0.784,2.552c-0.229,0.804-0.345,1.384-0.345,1.742c0,0.492,0.213,0.812,0.638,0.957
	c0.426,0.147,0.835,0.254,1.229,0.318v0.395c-0.622-0.063-1.26-0.123-1.914-0.174c-0.655-0.048-1.31-0.072-1.964-0.072
	s-1.31,0.024-1.964,0.072c-0.655,0.051-1.31,0.109-1.964,0.174c-0.099,0.033-0.155-0.018-0.172-0.147
	c-0.018-0.13,0.025-0.213,0.123-0.246c1.8-0.229,3.059-1.177,3.78-2.848v0.052c0.948-2.39,1.863-4.776,2.748-7.167
	c0.885-2.39,1.751-4.793,2.603-7.216c0.589-1.637,1.161-3.265,1.718-4.883c0.557-1.62,1.146-3.247,1.768-4.886
	c0.032-0.099,0.098-0.146,0.195-0.146c0.101,0,0.163,0.047,0.197,0.146c0.164,0.46,0.334,0.909,0.516,1.352
	c0.181,0.441,0.351,0.893,0.516,1.351c1.341,3.664,2.74,7.346,4.196,11.043s3.115,7.313,4.982,10.848
	c0.394,0.753,0.893,1.291,1.497,1.619c0.605,0.327,1.301,0.525,2.086,0.591v0.392C645.96,551.762,645.525,551.779,645.117,551.746z
	 M632.183,529.559c-0.556,1.736-1.089,3.43-1.595,5.081c-0.508,1.652-1.073,3.361-1.693,5.13h6.331L632.183,529.559z"/>
<path d="M677.269,525.462c-0.017-0.017-0.057-0.009-0.12,0.022c-0.461,0.132-0.942,0.296-1.449,0.491
	c-0.508,0.196-0.761,0.539-0.761,1.032l0.049,11.828v2.011c0,1.898-0.034,3.772-0.099,5.622c-0.066,1.849-0.181,3.704-0.345,5.569
	c0,0.066-0.042,0.123-0.122,0.173c-0.083,0.048-0.155,0.041-0.221-0.024c-1.57-1.342-3.143-2.791-4.712-4.346
	c-1.571-1.553-3.118-3.141-4.641-4.759c-1.521-1.62-3.019-3.256-4.49-4.909c-1.474-1.652-2.88-3.266-4.223-4.834
	c-0.458-0.491-0.866-0.956-1.228-1.397c-0.36-0.442-0.771-0.909-1.228-1.4c-0.098,0.883-0.146,1.736-0.146,2.554
	c0,1.242,0.016,2.484,0.05,3.729c0.031,1.244,0.081,2.484,0.146,3.729c0.064,1.245,0.114,2.487,0.146,3.731
	c0.033,1.244,0.05,2.502,0.05,3.777c0,0.559,0.049,1.007,0.147,1.352c0.099,0.344,0.222,0.612,0.368,0.81
	c0.146,0.196,0.326,0.336,0.539,0.417c0.214,0.082,0.435,0.141,0.662,0.171c0.264,0.067,0.523,0.142,0.786,0.222
	c0.263,0.084,0.572,0.255,0.934,0.517c0.063,0.065,0.089,0.142,0.072,0.221c-0.017,0.082-0.072,0.121-0.172,0.121
	c-0.328-0.029-0.646-0.063-0.957-0.098c-0.312-0.031-0.63-0.064-0.957-0.098c-0.459-0.064-0.925-0.114-1.397-0.146
	c-0.477-0.032-0.942-0.049-1.399-0.049c-0.589,0-1.194,0.041-1.814,0.122c-0.623,0.082-1.244,0.171-1.866,0.269
	c-0.1,0.034-0.171,0-0.222-0.098c-0.049-0.098-0.041-0.179,0.024-0.244c0.261-0.229,0.498-0.41,0.711-0.539
	c0.213-0.131,0.418-0.246,0.614-0.344c0.393-0.198,0.743-0.467,1.055-0.812c0.312-0.344,0.468-0.892,0.468-1.645v-22.97l0.392-0.785
	c0.033-0.064,0.082-0.115,0.146-0.148c0.066-0.029,0.115-0.014,0.149,0.052c3.564,3.696,7.019,7.338,10.357,10.92
	c3.337,3.583,6.724,7.291,10.159,11.119v-0.148c0-1.505-0.009-2.995-0.023-4.467c-0.02-1.474-0.042-2.979-0.073-4.517
	c-0.034-1.406-0.067-2.902-0.099-4.49c-0.033-1.586-0.05-3.084-0.05-4.491c0-0.557-0.059-1.006-0.172-1.351
	c-0.115-0.345-0.27-0.604-0.468-0.786c-0.195-0.179-0.408-0.302-0.637-0.366c-0.229-0.064-0.459-0.114-0.688-0.147
	c-0.261-0.03-0.499-0.071-0.711-0.123c-0.213-0.048-0.399-0.152-0.563-0.317c-0.065-0.065-0.074-0.146-0.024-0.247
	c0.049-0.099,0.106-0.129,0.172-0.099c0.753,0.099,1.455,0.148,2.11,0.148c0.688,0,1.375,0,2.062,0c0.427,0,0.859-0.008,1.302-0.024
	c0.441-0.018,0.891-0.008,1.352,0.024c0.162,0,0.343,0.008,0.539,0.023c0.195,0.018,0.375,0.025,0.54,0.025l0.098,0.393
	C677.326,525.47,677.286,525.479,677.269,525.462z"/>
<path d="M705.42,544.357c-0.753,1.783-1.799,3.258-3.141,4.419c-1.342,1.158-2.962,2.028-4.859,2.6
	c-1.898,0.574-3.993,0.859-6.283,0.859c-0.853,0-1.728-0.032-2.627-0.1c-0.899-0.063-1.774-0.129-2.626-0.194
	c-0.949-0.064-1.907-0.132-2.872-0.195c-0.965-0.064-1.923-0.082-2.87-0.051c-0.1,0-0.155-0.057-0.173-0.172
	c-0.017-0.113,0.023-0.188,0.123-0.221c1.079-0.229,1.742-0.605,1.987-1.13s0.368-1.309,0.368-2.354v-20.271
	c0-0.752-0.195-1.236-0.589-1.448c-0.395-0.213-0.785-0.353-1.179-0.417c-0.229-0.032-0.441-0.081-0.639-0.147
	c-0.196-0.064-0.343-0.178-0.442-0.344c-0.129-0.195-0.081-0.295,0.148-0.295c0.425,0,0.835,0.011,1.227,0.025
	c0.395,0.018,0.804,0.041,1.228,0.073c0.491,0.033,1.031,0.065,1.621,0.098c0.59,0.033,1.145,0.05,1.668,0.05
	c0.654,0,1.31-0.017,1.964-0.05c0.655-0.031,1.31-0.081,1.964-0.147c0.622-0.064,1.269-0.104,1.939-0.12
	c0.67-0.017,1.315-0.025,1.938-0.025c1.896,0,3.656,0.344,5.275,1.03c1.621,0.687,3.02,1.63,4.198,2.823
	c1.177,1.194,2.102,2.601,2.771,4.221c0.67,1.619,1.008,3.348,1.008,5.178C706.551,540.474,706.173,542.576,705.42,544.357z
	 M702.205,534.027c-0.671-1.604-1.595-2.971-2.773-4.102c-1.179-1.128-2.595-1.995-4.246-2.601c-1.651-0.606-3.46-0.907-5.424-0.907
	c-0.653,0-1.31,0.032-1.964,0.097c-0.655,0.067-1.293,0.213-1.914,0.442v19.485c0,0.95,0.105,1.703,0.318,2.26
	c0.213,0.556,0.532,0.98,0.958,1.273c0.424,0.295,0.957,0.483,1.594,0.565c0.641,0.081,1.4,0.123,2.284,0.123
	c1.799,0,3.443-0.238,4.934-0.713c1.488-0.474,2.772-1.178,3.854-2.111c1.08-0.932,1.914-2.101,2.505-3.509
	c0.588-1.405,0.883-3.043,0.883-4.908C703.212,537.431,702.876,535.631,702.205,534.027z"/>
<path d="M743.438,549.069c-0.017,0.114-0.022,0.237-0.022,0.368c-0.065,0.947-0.165,1.892-0.296,2.821
	c-0.131,0.936-0.394,1.827-0.784,2.677c0.032,0.033,0.049,0.099,0.049,0.196c-0.065,0.099-0.115,0.179-0.146,0.246
	c-0.065,0.063-0.13,0.098-0.195,0.098c-3.339-0.297-6.661-0.441-9.966-0.441c-2.716,0-5.417,0.047-8.101,0.146
	c-0.426,0.034-0.898,0.051-1.423,0.051c-0.49,0-0.933,0.017-1.326,0.051c-0.097,0-0.146-0.066-0.146-0.199
	c0-0.129,0.05-0.194,0.146-0.194c0.49-0.031,0.94-0.214,1.351-0.541s0.753-0.719,1.031-1.177c0.277-0.459,0.491-0.957,0.639-1.499
	c0.146-0.539,0.221-1.038,0.221-1.496V523.13c0-1.112-0.367-1.988-1.104-2.626c-0.736-0.637-1.629-0.974-2.675-1.007v-0.392
	c1.994,0.098,4.041,0.146,6.135,0.146c0.981,0,1.956-0.032,2.92-0.099c0.966-0.064,1.924-0.129,2.873-0.196
	c0.099,0,0.155,0.059,0.172,0.174c0.016,0.113-0.025,0.188-0.123,0.218c-0.949,0.165-1.808,0.565-2.577,1.205
	c-0.769,0.639-1.153,1.479-1.153,2.526v24.787c0,0.917,0.163,1.734,0.491,2.454c0.327,0.72,0.769,1.326,1.326,1.814
	c0.556,0.492,1.21,0.868,1.963,1.131c0.752,0.263,1.57,0.393,2.453,0.393c1.701,0,3.266-0.474,4.689-1.424
	c1.423-0.948,2.511-2.189,3.263-3.73l0.394,0.148l0,0C743.479,548.817,743.454,548.955,743.438,549.069z"/>
<path d="M771.467,544.506c-0.77,1.619-1.792,3.019-3.068,4.197c-1.274,1.178-2.757,2.095-4.44,2.746
	c-1.687,0.656-3.461,0.983-5.327,0.983c-1.538,0-3.133-0.378-4.785-1.13c-1.651-0.752-3.166-1.733-4.541-2.944
	c-1.374-1.21-2.512-2.584-3.412-4.124c-0.899-1.535-1.35-3.092-1.35-4.661c0-2.39,0.221-4.444,0.664-6.161
	c0.44-1.717,1.153-3.174,2.134-4.368c0.982-1.193,2.275-2.175,3.878-2.944c1.604-0.77,3.566-1.396,5.892-1.891l0.639-0.048
	c2.093-0.165,4.041,0.14,5.841,0.906c1.8,0.77,3.37,1.851,4.713,3.24c1.342,1.391,2.396,3.035,3.166,4.935
	c0.77,1.896,1.154,3.892,1.154,5.987C772.621,541.127,772.235,542.886,771.467,544.506z M768.619,534.369
	c-0.475-1.604-1.177-3.043-2.11-4.317c-0.933-1.277-2.078-2.308-3.435-3.094c-1.36-0.785-2.921-1.178-4.689-1.178
	c-1.668,0-3.148,0.302-4.442,0.909c-1.293,0.604-2.38,1.438-3.264,2.502c-0.885,1.063-1.563,2.291-2.038,3.682
	c-0.474,1.392-0.711,2.871-0.711,4.442c0,1.636,0.246,3.256,0.736,4.857c0.49,1.604,1.219,3.052,2.185,4.345
	c0.966,1.292,2.137,2.34,3.511,3.143c1.374,0.801,2.943,1.202,4.712,1.202c1.668,0,3.141-0.319,4.418-0.957
	c1.275-0.64,2.348-1.49,3.215-2.553c0.867-1.063,1.522-2.3,1.965-3.706c0.441-1.406,0.662-2.896,0.662-4.469
	C769.332,537.576,769.094,535.975,768.619,534.369z"/>
<path d="M799.668,539.548c-0.492,0.279-0.737,0.744-0.737,1.398v9.13c0,0.033-0.032,0.081-0.098,0.146
	c-1.211,0.915-2.553,1.48-4.025,1.692c-1.474,0.216-2.929,0.319-4.367,0.319c-2.29,0-4.396-0.304-6.309-0.906
	c-1.915-0.606-3.566-1.505-4.958-2.702c-1.391-1.193-2.473-2.706-3.24-4.538c-0.769-1.832-1.152-3.977-1.152-6.432
	c0-2.159,0.385-4.071,1.152-5.741c0.769-1.669,1.824-3.067,3.166-4.197s2.913-1.979,4.714-2.553
	c1.799-0.571,3.714-0.859,5.741-0.859c1.146,0,2.292,0.075,3.438,0.222c1.146,0.147,2.273,0.305,3.388,0.468
	c0.458,0.065,0.884,0.123,1.275,0.171c0.393,0.051,0.802,0.107,1.228,0.173c0.13,0,0.196,0.063,0.196,0.195
	c0,0.885-0.066,1.727-0.196,2.527c-0.131,0.803-0.263,1.628-0.393,2.479c-0.033,0.165-0.057,0.343-0.074,0.539
	c-0.017,0.197-0.041,0.377-0.072,0.54c-0.033,0.1-0.099,0.147-0.197,0.147s-0.162-0.049-0.195-0.147
	c-0.195-1.047-0.539-1.946-1.03-2.699c-0.491-0.752-1.104-1.373-1.841-1.864c-0.736-0.49-1.555-0.851-2.455-1.08
	c-0.901-0.229-1.84-0.344-2.822-0.344c-1.669,0-3.225,0.279-4.663,0.835c-1.44,0.557-2.692,1.332-3.756,2.331
	c-1.062,0.998-1.897,2.191-2.502,3.585c-0.605,1.389-0.909,2.919-0.909,4.588c0,1.831,0.334,3.565,1.006,5.202
	c0.671,1.636,1.596,3.059,2.773,4.271c1.178,1.211,2.561,2.17,4.147,2.872c1.589,0.703,3.298,1.055,5.131,1.055
	c0.752,0,1.546-0.104,2.38-0.319c0.836-0.212,1.529-0.563,2.087-1.054v-8.149c0-0.556-0.172-0.931-0.517-1.127
	c-0.345-0.198-0.729-0.36-1.152-0.491c-0.164-0.063-0.354-0.132-0.564-0.196c-0.214-0.064-0.435-0.165-0.662-0.293
	c-0.099-0.067-0.132-0.142-0.099-0.222c0.031-0.082,0.099-0.124,0.196-0.124c2.879,0,5.742,0.05,8.59,0.146l0.049,0.395
	C800.714,539.066,800.159,539.271,799.668,539.548z"/>
<path d="M847.846,551.549c-0.277,1.08-0.646,2.078-1.104,2.994c0,0.065-0.049,0.098-0.146,0.098
	c-2.095,0.359-4.189,0.647-6.283,0.86c-2.095,0.21-4.222,0.319-6.382,0.319c-2.649,0-5.104-0.436-7.361-1.304
	c-2.26-0.865-4.217-2.093-5.866-3.682c-1.652-1.585-2.938-3.483-3.854-5.692c-0.916-2.21-1.375-4.67-1.375-7.388
	c0-1.405,0.14-2.812,0.417-4.221c0.278-1.406,0.688-2.78,1.229-4.123c0.539-1.341,1.203-2.616,1.988-3.827
	c0.784-1.211,1.686-2.308,2.699-3.289c0.817-0.785,1.791-1.439,2.92-1.963c1.131-0.522,2.314-0.942,3.56-1.253
	c1.243-0.311,2.495-0.531,3.756-0.662c1.259-0.132,2.429-0.196,3.511-0.196c1.209,0,2.411,0.081,3.606,0.246
	c1.194,0.162,2.362,0.327,3.51,0.489c0.851,0.132,1.709,0.246,2.577,0.344c0.867,0.1,1.709,0.182,2.528,0.246
	c0.131,0,0.195,0.064,0.195,0.196c-0.064,1.572-0.188,3.101-0.367,4.589c-0.181,1.489-0.386,2.986-0.613,4.49
	c-0.034,0.099-0.1,0.148-0.197,0.148c-0.065,0-0.114-0.051-0.147-0.148c-0.261-1.474-0.729-2.765-1.397-3.878
	c-0.67-1.11-1.514-2.045-2.527-2.797c-1.016-0.753-2.16-1.316-3.436-1.693c-1.277-0.376-2.62-0.563-4.026-0.563
	c-2.324,0-4.434,0.367-6.332,1.104c-1.898,0.736-3.518,1.783-4.859,3.142c-1.344,1.359-2.381,2.986-3.116,4.884
	c-0.735,1.898-1.105,4.01-1.105,6.331c0,2.425,0.436,4.763,1.303,7.02c0.865,2.259,2.077,4.255,3.632,5.989s3.403,3.124,5.547,4.173
	c2.145,1.046,4.476,1.568,6.995,1.568c1.439,0,2.684-0.153,3.729-0.464c1.048-0.312,1.973-0.777,2.774-1.4
	c0.801-0.621,1.505-1.399,2.109-2.33c0.605-0.935,1.203-2.038,1.792-3.313c0.065-0.098,0.141-0.14,0.222-0.122
	c0.082,0.016,0.139,0.071,0.171,0.17c0.099,0.56,0.147,1.129,0.147,1.719C848.264,549.405,848.124,550.468,847.846,551.549z"/>
<path d="M876.071,551.746c-0.411-0.034-0.844-0.064-1.303-0.1c-0.262-0.032-0.531-0.059-0.809-0.073
	c-0.279-0.017-0.565-0.024-0.859-0.024c-0.753,0-1.506,0.032-2.258,0.1c-0.754,0.063-1.507,0.132-2.26,0.195
	c-0.097,0-0.163-0.051-0.195-0.147c-0.033-0.099,0-0.18,0.1-0.246l1.914-0.932c-0.558-1.538-1.138-3.052-1.742-4.542
	c-0.606-1.486-1.188-3.018-1.742-4.588h-7.609c-0.164,0.428-0.4,1.057-0.711,1.891c-0.312,0.833-0.614,1.702-0.909,2.602
	c-0.294,0.899-0.557,1.749-0.784,2.552c-0.229,0.804-0.345,1.384-0.345,1.742c0,0.492,0.213,0.812,0.64,0.957
	c0.425,0.147,0.834,0.254,1.228,0.318v0.395c-0.623-0.063-1.262-0.123-1.915-0.174c-0.655-0.048-1.31-0.072-1.964-0.072
	s-1.309,0.024-1.964,0.072c-0.654,0.051-1.309,0.109-1.963,0.174c-0.099,0.033-0.155-0.018-0.173-0.147s0.024-0.213,0.123-0.246
	c1.8-0.229,3.06-1.177,3.779-2.848v0.052c0.949-2.39,1.865-4.776,2.749-7.167c0.885-2.39,1.75-4.793,2.602-7.216
	c0.59-1.637,1.162-3.265,1.719-4.883c0.558-1.62,1.146-3.247,1.769-4.886c0.032-0.099,0.098-0.146,0.195-0.146
	c0.099,0,0.164,0.047,0.196,0.146c0.163,0.46,0.336,0.909,0.515,1.352c0.181,0.441,0.353,0.893,0.518,1.351
	c1.341,3.664,2.741,7.346,4.195,11.043c1.455,3.697,3.117,7.313,4.982,10.848c0.393,0.753,0.892,1.291,1.497,1.619
	c0.606,0.327,1.301,0.525,2.087,0.591v0.392C876.913,551.762,876.479,551.779,876.071,551.746z M863.138,529.559
	c-0.559,1.736-1.09,3.43-1.597,5.081c-0.507,1.652-1.072,3.361-1.694,5.13h6.334L863.138,529.559z"/>
<path d="M897.326,547.328c-0.478,0.98-1.104,1.816-1.891,2.502c-0.785,0.688-1.694,1.22-2.726,1.596
	c-1.031,0.377-2.118,0.565-3.264,0.565c-0.787,0-1.571,0-2.356,0c-0.753,0-1.521-0.018-2.307-0.05
	c-0.786-0.031-1.571-0.052-2.356-0.052c-0.754,0-1.521,0-2.309,0c-0.099,0-0.153-0.056-0.171-0.17s0.023-0.188,0.123-0.221
	c0.556-0.196,0.999-0.376,1.324-0.54c0.326-0.162,0.564-0.37,0.712-0.612c0.147-0.247,0.236-0.557,0.271-0.934
	c0.032-0.376,0.05-0.842,0.05-1.399v-20.467c0-0.426-0.042-0.752-0.124-0.98c-0.082-0.229-0.18-0.395-0.293-0.491
	c-0.116-0.1-0.255-0.163-0.419-0.197c-0.163-0.032-0.344-0.063-0.539-0.098c-0.263-0.033-0.532-0.081-0.81-0.147
	c-0.277-0.063-0.499-0.229-0.663-0.49c-0.064-0.065-0.074-0.14-0.024-0.221c0.048-0.081,0.123-0.105,0.22-0.075
	c0.36,0.099,0.712,0.165,1.058,0.198c0.344,0.031,0.693,0.048,1.056,0.048c0.49,0,0.988-0.017,1.497-0.048
	c0.507-0.033,1.022-0.082,1.546-0.148c0.491-0.063,0.981-0.112,1.474-0.146c0.489-0.032,0.98-0.047,1.473-0.047
	c0.852,0,1.718,0.122,2.601,0.365c0.886,0.247,1.694,0.605,2.432,1.078c0.735,0.478,1.342,1.074,1.814,1.794
	c0.477,0.721,0.714,1.57,0.714,2.553c0,1.211-0.337,2.332-1.008,3.362s-1.431,1.938-2.281,2.724c1.7,0.556,3.108,1.473,4.222,2.749
	c1.112,1.277,1.669,2.847,1.669,4.712C898.037,545.249,897.8,546.346,897.326,547.328z M892.048,529.143
	c-0.195-0.604-0.48-1.145-0.858-1.618c-0.375-0.478-0.844-0.853-1.397-1.132c-0.558-0.275-1.195-0.416-1.915-0.416
	c-0.328,0-0.655,0.034-0.982,0.1c-0.326,0.065-0.653,0.146-0.98,0.245v9.815h0.146c0.949,0,1.809-0.064,2.577-0.195
	c0.77-0.132,1.432-0.385,1.988-0.762c0.557-0.376,0.981-0.892,1.276-1.547c0.295-0.654,0.441-1.521,0.441-2.601
	C892.344,530.378,892.245,529.749,892.048,529.143z M894.062,541.732c-0.491-0.949-1.154-1.719-1.987-2.309
	c-0.836-0.588-1.785-1.021-2.849-1.3c-1.063-0.278-2.186-0.434-3.362-0.468v10.261c0,0.424,0.131,0.808,0.393,1.151
	c0.261,0.345,0.589,0.639,0.982,0.884c0.392,0.246,0.809,0.433,1.25,0.564s0.859,0.195,1.252,0.195c0.754,0,1.44-0.154,2.062-0.467
	c0.622-0.312,1.154-0.729,1.596-1.25c0.441-0.523,0.785-1.122,1.03-1.793c0.246-0.669,0.368-1.365,0.368-2.086
	C894.797,543.81,894.553,542.682,894.062,541.732z"/>
<path d="M907.633,551.868c-0.604-0.018-1.219-0.024-1.841-0.024c-0.884,0-1.749,0.008-2.602,0.024
	c-0.854,0.018-1.718,0.042-2.602,0.073c-0.099,0-0.156-0.057-0.173-0.173c-0.017-0.112,0.025-0.188,0.123-0.221
	c0.817-0.295,1.415-0.743,1.792-1.35c0.376-0.604,0.563-1.334,0.563-2.186v-20.368c0-0.753-0.255-1.277-0.762-1.57
	c-0.507-0.295-1.104-0.49-1.792-0.591c-0.098-0.031-0.138-0.104-0.121-0.22c0.016-0.112,0.073-0.173,0.171-0.173
	c0.688,0.067,1.374,0.114,2.062,0.147c0.687,0.034,1.39,0.048,2.109,0.048c0.688,0,1.375-0.014,2.062-0.048
	c0.688-0.033,1.357-0.099,2.013-0.195c0.1-0.033,0.163,0.018,0.196,0.146c0.032,0.131,0,0.212-0.098,0.244
	c-0.722,0.165-1.302,0.36-1.743,0.59s-0.663,0.771-0.663,1.62v20.222c0,1.244,0.237,2.137,0.712,2.676
	c0.475,0.54,1.3,0.858,2.479,0.957v0.391C908.868,551.891,908.238,551.886,907.633,551.868z"/>
<path d="M940.374,525.462c-0.017-0.017-0.058-0.009-0.122,0.022c-0.459,0.132-0.939,0.296-1.448,0.491
	c-0.508,0.196-0.761,0.539-0.761,1.032l0.049,11.828v2.011c0,1.898-0.033,3.772-0.098,5.622c-0.065,1.849-0.182,3.704-0.345,5.569
	c0,0.066-0.041,0.123-0.123,0.173c-0.081,0.048-0.155,0.041-0.22-0.024c-1.57-1.342-3.143-2.791-4.714-4.346
	c-1.57-1.553-3.118-3.141-4.638-4.759c-1.521-1.62-3.02-3.256-4.492-4.909c-1.473-1.652-2.881-3.266-4.222-4.834
	c-0.459-0.491-0.867-0.956-1.228-1.397c-0.359-0.442-0.771-0.909-1.228-1.4c-0.099,0.883-0.146,1.736-0.146,2.554
	c0,1.242,0.015,2.484,0.047,3.729c0.033,1.244,0.082,2.484,0.147,3.729c0.065,1.245,0.114,2.487,0.146,3.731
	c0.032,1.244,0.051,2.502,0.051,3.777c0,0.559,0.049,1.007,0.146,1.352c0.1,0.344,0.221,0.612,0.368,0.81
	c0.146,0.196,0.327,0.336,0.54,0.417c0.212,0.082,0.434,0.141,0.663,0.171c0.261,0.067,0.522,0.142,0.785,0.222
	c0.261,0.084,0.571,0.255,0.933,0.517c0.064,0.065,0.09,0.142,0.073,0.221c-0.019,0.082-0.073,0.121-0.172,0.121
	c-0.328-0.029-0.646-0.063-0.957-0.098c-0.312-0.031-0.631-0.064-0.959-0.098c-0.457-0.064-0.924-0.114-1.397-0.146
	c-0.475-0.032-0.939-0.049-1.397-0.049c-0.591,0-1.195,0.041-1.816,0.122c-0.622,0.082-1.244,0.171-1.864,0.269
	c-0.1,0.034-0.173,0-0.223-0.098c-0.049-0.098-0.041-0.179,0.024-0.244c0.261-0.229,0.499-0.41,0.711-0.539
	c0.214-0.131,0.419-0.246,0.614-0.344c0.394-0.198,0.744-0.467,1.056-0.812c0.311-0.344,0.466-0.892,0.466-1.645v-22.97l0.395-0.785
	c0.031-0.064,0.08-0.115,0.146-0.148c0.067-0.029,0.116-0.014,0.149,0.052c3.565,3.696,7.02,7.338,10.356,10.92
	c3.338,3.583,6.724,7.291,10.16,11.119v-0.148c0-1.505-0.009-2.995-0.023-4.467c-0.018-1.474-0.042-2.979-0.072-4.517
	c-0.034-1.406-0.066-2.902-0.1-4.49c-0.034-1.586-0.05-3.084-0.05-4.491c0-0.557-0.056-1.006-0.172-1.351s-0.27-0.604-0.466-0.786
	c-0.196-0.179-0.41-0.302-0.64-0.366c-0.229-0.064-0.457-0.114-0.687-0.147c-0.263-0.03-0.5-0.071-0.713-0.123
	c-0.213-0.048-0.399-0.152-0.563-0.317c-0.064-0.065-0.074-0.146-0.023-0.247c0.049-0.099,0.104-0.129,0.171-0.099
	c0.753,0.099,1.456,0.148,2.11,0.148c0.688,0,1.377,0,2.062,0c0.425,0,0.858-0.008,1.301-0.024c0.442-0.018,0.894-0.008,1.352,0.024
	c0.162,0,0.343,0.008,0.54,0.023c0.194,0.018,0.375,0.025,0.54,0.025l0.098,0.393C940.432,525.47,940.391,525.479,940.374,525.462z"
	/>
<path d="M955.788,547.867c-0.604,0.95-1.375,1.759-2.308,2.43c-0.934,0.671-1.965,1.194-3.093,1.571
	c-1.13,0.375-2.202,0.564-3.216,0.564c-0.49,0-1.006-0.059-1.547-0.174c-0.54-0.112-1.03-0.302-1.473-0.563
	c-0.442-0.261-0.802-0.597-1.079-1.008c-0.278-0.407-0.417-0.923-0.417-1.543c0-0.395,0.041-0.787,0.122-1.18
	c0.082-0.393,0.155-0.768,0.221-1.128l0.246-1.18c0-0.099,0.065-0.146,0.194-0.146c0.132,0,0.198,0.048,0.198,0.146v0.737
	c0,0.687,0.146,1.291,0.44,1.814s0.671,0.974,1.13,1.351c0.456,0.374,0.989,0.654,1.595,0.833c0.605,0.183,1.219,0.271,1.842,0.271
	c0.59,0,1.192-0.1,1.815-0.296c0.62-0.196,1.187-0.481,1.693-0.858c0.508-0.375,0.924-0.834,1.251-1.374
	c0.328-0.539,0.49-1.138,0.49-1.792c0-0.621-0.146-1.232-0.44-1.84c-0.294-0.604-0.688-1.219-1.178-1.841
	c-0.491-0.62-1.048-1.244-1.669-1.865c-0.622-0.62-1.262-1.244-1.915-1.864c-0.688-0.653-1.374-1.316-2.062-1.988
	c-0.687-0.672-1.293-1.356-1.815-2.062c-0.522-0.704-0.949-1.415-1.276-2.136c-0.327-0.719-0.489-1.455-0.489-2.209
	c0-1.111,0.311-2.07,0.93-2.87c0.623-0.802,1.395-1.456,2.31-1.966c0.915-0.506,1.914-0.881,2.995-1.127
	c1.079-0.246,2.078-0.369,2.994-0.369c1.309,0,2.502,0.165,3.583,0.493c0.099,0.063,0.146,0.13,0.146,0.193
	c-0.131,1.604-0.328,3.256-0.589,4.958c-0.033,0.1-0.098,0.146-0.197,0.146c-0.098,0-0.163-0.048-0.195-0.146
	c-0.263-1.146-0.761-2.127-1.497-2.945c-0.735-0.817-1.71-1.227-2.92-1.227c-1.244,0-2.283,0.399-3.118,1.203
	c-0.833,0.803-1.251,1.823-1.251,3.067c0,0.653,0.139,1.258,0.418,1.814c0.276,0.557,0.638,1.097,1.079,1.618
	c0.44,0.526,0.957,1.041,1.547,1.547c0.589,0.509,1.193,1.023,1.816,1.546c0.687,0.559,1.364,1.14,2.035,1.743
	c0.672,0.605,1.27,1.244,1.793,1.915c0.522,0.671,0.948,1.382,1.275,2.134c0.327,0.754,0.49,1.571,0.49,2.455
	C956.695,545.872,956.395,546.919,955.788,547.867z"/>
<path d="M193.975,310.167c0,0,12.899-0.472,21.127-0.987c8.228-0.514,182.89-8.618,182.89-8.618s-11.001-0.515-17.172-10.805
	c-1.539-2.566,5.638,4.142-11.313,5.146c-32.854,1.946-54.244,3.321-92.695,5.866C255.548,302.176,193.975,310.167,193.975,310.167z
	"/>
<path d="M153.863,366.762c0,0,12.899-0.471,21.127-0.985c8.228-0.516,182.89-8.618,182.89-8.618s-11.001-0.516-17.172-10.806
	c-1.539-2.565,5.638,4.142-11.313,5.146c-32.854,1.946-54.244,3.322-92.695,5.867C215.437,358.772,153.863,366.762,153.863,366.762z
	"/>
<path d="M69.526,479.955c0,0,12.899-0.473,21.127-0.986c8.228-0.516,182.89-8.619,182.89-8.619s-11-0.514-17.171-10.805
	c-1.539-2.566,5.637,4.143-11.313,5.146c-32.854,1.944-54.244,3.321-92.695,5.865C131.099,471.965,69.526,479.955,69.526,479.955z"
	/>
<path d="M109.638,422.33c0,0,12.899-0.473,21.127-0.987c8.228-0.514,182.89-8.618,182.89-8.618s-11.001-0.515-17.171-10.804
	c-1.539-2.567,5.637,4.141-11.313,5.146c-32.854,1.944-54.244,3.322-92.695,5.866C171.211,414.339,109.638,422.33,109.638,422.33z"
	/>
<path d="M421.96,271.33c0,5.099-0.835,10.32-3.122,15.007c-2.263,4.677-5.853,8.865-10.523,11.542
	c-4.662,2.664-10.418,3.573-15.768,2.313c-11.095-2.51-18.836-8.627-20.85-19.169c-0.993-5.375-0.12-15.283,1.728-20.468
	c0.946-2.578,2.19-5.048,3.773-7.289c1.608-2.217,3.486-4.253,5.69-5.871c4.327-3.304,9.918-4.981,15.074-4.201
	c0.142,0.021,0.24,0.153,0.219,0.295c-0.017,0.116-0.108,0.204-0.219,0.22c-5.017,0.729-9.404,3.103-12.721,6.435
	c-1.646,1.681-3.094,3.538-4.228,5.581c-1.161,2.022-2.078,4.182-2.7,6.423c-1.296,4.46-1.647,9.198-1.103,13.837
	c0.525,4.639,2.202,9.19,4.982,12.969c2.77,3.762,6.671,6.735,11.167,7.998c4.479,1.297,9.463,0.807,13.725-1.343
	c4.302-2.101,7.882-5.724,10.308-10.008c2.433-4.297,3.771-9.244,3.969-14.276c0.005-0.142,0.168-0.252,0.31-0.247
	c0.135,0.005,0.29,0.114,0.29,0.246V271.33z"/>
<path d="M381.849,327.926c0,5.1-0.836,10.321-3.123,15.007c-2.263,4.678-5.852,8.865-10.524,11.542
	c-4.662,2.664-10.418,3.573-15.767,2.313c-5.374-1.216-10.147-4.487-13.588-8.701c-3.478-4.215-5.751-9.354-6.777-14.725
	c-0.993-5.375-0.604-11.027,1.243-16.211c0.946-2.578,2.19-5.05,3.773-7.289c1.608-2.218,3.486-4.253,5.691-5.871
	c4.327-3.304,9.918-4.982,15.073-4.201c0.142,0.021,0.24,0.153,0.219,0.294c-0.017,0.116-0.109,0.203-0.219,0.22
	c-5.017,0.73-9.404,3.103-12.721,6.435c-1.646,1.681-3.094,3.539-4.228,5.582c-1.161,2.021-2.078,4.181-2.701,6.422
	c-1.296,4.46-1.647,9.198-1.103,13.837c0.525,4.639,2.203,9.189,4.982,12.968c2.77,3.763,6.671,6.736,11.168,7.999
	c4.479,1.296,9.463,0.807,13.725-1.344c4.302-2.102,7.882-5.723,10.308-10.008c2.433-4.297,3.77-9.243,3.968-14.276
	c0.005-0.142,0.168-0.252,0.31-0.247c0.135,0.006,0.29,0.114,0.29,0.246L381.849,327.926L381.849,327.926z"/>
<path d="M457.958,312.49c0,5.1-0.835,10.32-3.122,15.008c-2.263,4.677-5.853,8.864-10.523,11.542
	c-4.662,2.664-10.42,3.573-15.768,2.312c-5.375-1.216-10.146-4.487-13.588-8.7c-3.479-4.216-5.751-9.355-6.777-14.726
	c-0.992-5.376-0.604-11.027,1.243-16.212c0.946-2.577,2.19-5.048,3.774-7.289c1.607-2.217,3.485-4.253,5.689-5.871
	c4.327-3.304,9.918-4.982,15.074-4.201c0.143,0.021,0.241,0.153,0.22,0.294c-0.017,0.116-0.109,0.203-0.22,0.22
	c-5.017,0.73-9.403,3.104-12.721,6.435c-1.646,1.681-3.094,3.538-4.229,5.581c-1.161,2.023-2.078,4.182-2.699,6.423
	c-1.297,4.459-1.647,9.198-1.104,13.836c0.525,4.641,2.203,9.19,4.982,12.969c2.77,3.763,6.671,6.735,11.168,7.999
	c4.479,1.296,9.463,0.807,13.725-1.345c4.301-2.101,7.882-5.723,10.307-10.008c2.434-4.297,3.771-9.244,3.969-14.275
	c0.006-0.143,0.168-0.253,0.311-0.247c0.135,0.005,0.29,0.113,0.29,0.246v0.008H457.958z"/>
<path d="M489.841,355.709c0,5.1-0.835,10.32-3.123,15.007c-2.263,4.677-5.852,8.864-10.522,11.542
	c-4.663,2.664-10.419,3.572-15.769,2.313c-5.374-1.218-10.146-4.488-13.588-8.702c-3.478-4.215-5.751-9.355-6.776-14.725
	c-0.993-5.375-0.604-11.027,1.242-16.211c0.946-2.577,2.19-5.049,3.773-7.289c1.607-2.217,3.486-4.254,5.689-5.871
	c4.327-3.305,9.918-4.982,15.074-4.2c0.143,0.021,0.241,0.151,0.219,0.294c-0.017,0.116-0.108,0.203-0.219,0.22
	c-5.016,0.73-9.404,3.104-12.721,6.435c-1.646,1.682-3.094,3.538-4.229,5.582c-1.16,2.022-2.077,4.182-2.699,6.423
	c-1.297,4.46-1.647,9.197-1.104,13.837c0.525,4.639,2.203,9.189,4.981,12.968c2.77,3.764,6.672,6.736,11.168,7.999
	c4.479,1.296,9.463,0.807,13.726-1.344c4.301-2.102,7.882-5.724,10.307-10.009c2.435-4.297,3.771-9.243,3.97-14.275
	c0.006-0.143,0.169-0.252,0.311-0.247c0.134,0.006,0.289,0.114,0.289,0.246V355.709z"/>
<path d="M339.68,383.493c0,5.099-0.835,10.321-3.123,15.006c-2.263,4.677-5.852,8.865-10.524,11.543
	c-4.662,2.664-10.419,3.573-15.768,2.313c-5.374-1.217-10.146-4.488-13.587-8.701c-3.478-4.215-5.752-9.355-6.777-14.726
	c-0.993-5.376-0.604-11.026,1.243-16.211c0.945-2.578,2.19-5.049,3.773-7.289c1.608-2.217,3.486-4.254,5.69-5.871
	c4.327-3.305,9.918-4.981,15.073-4.2c0.142,0.021,0.241,0.152,0.22,0.294c-0.017,0.115-0.11,0.204-0.22,0.221
	c-5.016,0.729-9.404,3.103-12.721,6.434c-1.645,1.683-3.093,3.539-4.228,5.582c-1.161,2.023-2.078,4.182-2.7,6.423
	c-1.296,4.46-1.647,9.198-1.103,13.837c0.524,4.639,2.202,9.189,4.981,12.969c2.77,3.763,6.671,6.734,11.168,7.999
	c4.479,1.297,9.463,0.807,13.725-1.346c4.302-2.101,7.882-5.723,10.307-10.008c2.433-4.297,3.77-9.243,3.969-14.275
	c0.005-0.143,0.168-0.252,0.31-0.246c0.135,0.005,0.29,0.114,0.29,0.246v0.007H339.68z"/>
<path d="M297.511,441.118c0,5.098-0.835,10.32-3.123,15.007c-2.263,4.677-5.852,8.863-10.524,11.542
	c-4.662,2.664-10.418,3.573-15.767,2.313c-5.374-1.217-10.146-4.488-13.588-8.702c-3.478-4.214-5.752-9.354-6.777-14.725
	c-0.993-5.376-0.604-11.026,1.243-16.212c0.946-2.577,2.19-5.048,3.773-7.289c1.608-2.216,3.486-4.253,5.69-5.871
	c4.328-3.304,9.919-4.98,15.074-4.199c0.143,0.021,0.241,0.151,0.22,0.295c-0.017,0.115-0.109,0.203-0.22,0.219
	c-5.016,0.73-9.403,3.104-12.721,6.437c-1.644,1.681-3.093,3.537-4.227,5.58c-1.161,2.022-2.078,4.183-2.7,6.423
	c-1.296,4.461-1.647,9.198-1.103,13.838c0.525,4.64,2.203,9.189,4.981,12.969c2.77,3.763,6.671,6.734,11.167,7.998
	c4.48,1.298,9.463,0.808,13.725-1.344c4.302-2.102,7.883-5.724,10.308-10.009c2.433-4.298,3.771-9.244,3.968-14.275
	c0.006-0.143,0.168-0.252,0.311-0.246c0.134,0.005,0.29,0.111,0.29,0.245L297.511,441.118L297.511,441.118z"/>
<path d="M26.328,535.521c0,0,12.899-0.473,21.127-0.987s182.89-8.617,182.89-8.617s-11-0.515-17.171-10.805
	c-1.539-2.566,5.638,4.142-11.314,5.146c-32.854,1.945-54.243,3.321-92.694,5.866C87.901,527.53,26.328,535.521,26.328,535.521z"/>
<path d="M254.314,496.685c0,5.1-0.835,10.32-3.123,15.008c-2.263,4.677-5.852,8.863-10.524,11.543
	c-4.662,2.663-10.418,3.571-15.767,2.312c-5.374-1.216-10.147-4.487-13.587-8.701c-3.478-4.215-5.752-9.354-6.777-14.724
	c-0.994-5.376-0.604-11.027,1.243-16.212c0.945-2.577,2.19-5.049,3.773-7.289c1.608-2.217,3.486-4.254,5.69-5.872
	c4.327-3.303,9.918-4.98,15.074-4.199c0.142,0.021,0.24,0.152,0.22,0.294c-0.017,0.116-0.11,0.203-0.22,0.221
	c-5.017,0.73-9.404,3.104-12.721,6.436c-1.645,1.681-3.094,3.537-4.228,5.582c-1.161,2.021-2.079,4.181-2.701,6.422
	c-1.296,4.46-1.647,9.198-1.103,13.836c0.525,4.641,2.203,9.191,4.982,12.969c2.769,3.764,6.671,6.735,11.168,7.998
	c4.479,1.299,9.463,0.809,13.725-1.343c4.302-2.102,7.882-5.723,10.307-10.009c2.433-4.297,3.771-9.243,3.969-14.276
	c0.006-0.141,0.168-0.251,0.31-0.246c0.135,0.007,0.29,0.113,0.29,0.246V496.685z"/>
<path d="M228.258,525.585l-201.93,9.938l148.276-21.438c0,0,27.093-2.983,29.998-16.372
	C207.508,484.321,197.403,518.909,228.258,525.585z"/>
<path d="M273.512,470.019l-201.929,9.938l148.276-21.438c0,0,27.092-2.983,29.998-16.372
	C252.763,428.756,242.657,463.342,273.512,470.019z"/>
<path d="M357.85,356.826l-201.93,9.937l148.276-21.438c0,0,27.093-2.983,29.998-16.373C337.1,315.562,326.995,350.15,357.85,356.826
	z"/>
<path d="M314.652,412.394l-201.929,9.938l148.276-21.439c0,0,27.093-2.981,29.998-16.372
	C293.902,371.129,283.797,405.717,314.652,412.394z"/>
<path d="M394.876,300.23l-201.929,9.937l148.276-21.438c0,0,27.093-2.983,29.998-16.373
	C374.126,258.966,364.021,293.554,394.876,300.23z"/>
</svg>
