<?xml version="1.0" encoding="utf-8"?>
<!-- Generator: Adobe Illustrator 16.0.0, SVG Export Plug-In . SVG Version: 6.00 Build 0)  -->
<!DOCTYPE svg PUBLIC "-//W3C//DTD SVG 1.1//EN" "http://www.w3.org/Graphics/SVG/1.1/DTD/svg11.dtd">
<svg version="1.1" id="Layer_1" xmlns="http://www.w3.org/2000/svg" xmlns:xlink="http://www.w3.org/1999/xlink" x="0px" y="0px"
	 width="1117.561px" height="353.982px" viewBox="0 0 1117.561 353.982" enable-background="new 0 0 1117.561 353.982"
	 xml:space="preserve">
<path d="M495.579,143.491c-1.388,1-2.839,1.848-4.352,2.54c-1.513,0.693-3.407,1.276-5.684,1.749
	c-2.277,0.473-4.651,0.708-7.122,0.708c-5.579,0-10.459-1.125-14.639-3.373c-4.179-2.248-7.476-5.47-9.891-9.659
	c-2.415-4.193-3.623-9.064-3.623-14.616c0-5.524,1.026-10.194,3.081-14.011c2.056-3.816,4.942-6.731,8.662-8.745
	c3.721-2.013,7.927-3.021,12.618-3.021c3.107,0,6.102,0.452,8.975,1.354s5.323,2.158,7.35,3.769l0.417,7.078l0.333,0.333h1.957
	l0.292-0.333c0.557-6.135,1.151-9.979,1.79-11.534l-0.292-0.417c-2.415-1.083-5.427-2.013-9.036-2.79
	c-3.607-0.777-7.26-1.165-10.951-1.165c-6.386,0-12.14,1.173-17.263,3.52c-5.122,2.346-9.244,5.886-12.368,10.618
	c-3.123,4.731-4.685,10.264-4.685,16.593c0,9.188,3.13,16.628,9.391,22.318c6.262,5.69,14.401,8.537,24.427,8.537
	c6.993,0,13.573-1.567,19.736-4.706l1.583-3.872L495.579,143.491z"/>
<path d="M507.781,122.962c1.307-3.109,2.057-4.811,2.249-5.103c0.194-0.29,0.95-0.673,2.271-1.144
	c1.317-0.474,2.784-0.708,4.394-0.708c3.082,0,5.539,0.84,7.371,2.519c1.833,1.683,2.749,4.574,2.749,8.684
	c-11.383,1.609-18.351,3.56-20.905,5.85c-2.554,2.29-3.831,5.477-3.831,9.558c0,2.055,0.424,3.804,1.271,5.247
	c0.847,1.441,2.067,2.566,3.664,3.373c1.596,0.805,3.505,1.207,5.726,1.207c1.807,0,3.473-0.319,4.998-0.958l9.078-7.079
	l-0.167,6.704l0.625,0.583c2.332-0.166,4.33-0.249,5.997-0.249c1.748,0,3.637,0.083,5.663,0.249l0.333-0.333v-1.666l-0.333-0.374
	l-2.374-0.208c-0.832-0.084-1.401-0.188-1.707-0.312s-0.576-0.367-0.812-0.729c-0.235-0.36-0.354-1.389-0.354-3.082v-12.407
	l0.208-8.37c0-2.388-0.472-4.477-1.416-6.267s-2.471-3.282-4.581-4.478c-2.108-1.193-4.761-1.79-7.953-1.79
	c-4.664,0-9.468,1.832-14.409,5.496v5.163l0.333,0.417l1.625,0.417L507.781,122.962z M526.812,140.993
	c-3.609,4.274-7.26,6.412-10.952,6.412c-4.304,0-6.455-2.165-6.455-6.495c0-3.138,0.958-5.454,2.874-6.953
	c1.915-1.499,6.76-2.901,14.533-4.206V140.993z"/>
<path d="M545.822,95.479c0.403,0.111,0.688,0.277,0.854,0.5c0.167,0.223,0.299,0.952,0.396,2.188c0.1,1.233,0.188,3.38,0.271,6.433
	l0.166,7.994v22.07c0,6.438-0.264,12.187-0.79,17.236l1.374,0.542l3.372-3.164c1.692,1.165,3.332,2.021,4.914,2.562
	c1.583,0.54,3.346,0.812,5.29,0.812c2.498,0,4.529-0.354,6.1-1.062c1.568-0.707,4.282-2.463,8.143-5.268
	c1.973-1.442,3.347-2.639,4.122-3.581c1.307-1.64,2.438-3.721,3.396-6.245c0.958-2.527,1.437-5.192,1.437-7.995
	c0-2.943-0.574-5.711-1.729-8.31c-1.151-2.594-2.915-4.67-5.288-6.225c-2.374-1.555-5.129-2.332-8.267-2.332
	c-1.723,0-3.366,0.222-4.937,0.667c-1.568,0.444-2.805,0.957-3.706,1.541c-0.9,0.583-2.076,1.589-3.52,3.02
	c-1.443,1.432-2.431,2.491-2.956,3.187v-10.618c0-9.604,0.15-16.004,0.458-19.196l-0.791-0.5c-3.639,1.443-8.106,2.472-13.409,3.081
	l-0.334,0.375v1.749l0.375,0.375C543.733,95.313,545.42,95.37,545.822,95.479z M558.441,119.528c2.095-1.625,4.52-2.438,7.269-2.438
	c2.331,0,4.428,0.597,6.285,1.791c1.86,1.193,3.258,2.922,4.188,5.185c0.931,2.265,1.396,4.865,1.396,7.81
	c0,4.689-1.116,8.562-3.353,11.616c-2.235,3.056-5.323,4.581-9.266,4.581c-1.666,0-3.275-0.299-4.831-0.896
	c-1.557-0.599-2.824-1.305-3.812-2.124c-0.985-0.818-1.541-1.43-1.667-1.832c-0.125-0.401-0.187-1.256-0.187-2.562v-15.614
	C555.019,122.99,556.345,121.151,558.441,119.528z"/>
<path d="M597.606,122.962c1.305-3.109,2.054-4.811,2.249-5.103c0.194-0.29,0.951-0.673,2.271-1.144
	c1.316-0.474,2.781-0.708,4.394-0.708c3.081,0,5.538,0.84,7.371,2.519c1.831,1.683,2.748,4.574,2.748,8.684
	c-11.383,1.609-18.354,3.56-20.905,5.85c-2.555,2.29-3.831,5.477-3.831,9.558c0,2.055,0.423,3.804,1.271,5.247
	c0.846,1.441,2.065,2.566,3.664,3.373c1.597,0.805,3.505,1.207,5.727,1.207c1.804,0,3.47-0.319,4.997-0.958l9.078-7.079
	l-0.167,6.704l0.625,0.583c2.332-0.166,4.331-0.249,5.996-0.249c1.75,0,3.637,0.083,5.664,0.249l0.333-0.333v-1.666l-0.333-0.374
	l-2.374-0.208c-0.833-0.084-1.401-0.188-1.707-0.312c-0.308-0.124-0.576-0.367-0.812-0.729c-0.233-0.36-0.354-1.389-0.354-3.082
	v-12.407l0.209-8.37c0-2.388-0.476-4.477-1.416-6.267c-0.944-1.791-2.474-3.282-4.581-4.478c-2.11-1.193-4.763-1.79-7.954-1.79
	c-4.664,0-9.467,1.832-14.409,5.496v5.163l0.333,0.417l1.624,0.417L597.606,122.962z M616.638,140.993
	c-3.609,4.274-7.26,6.412-10.952,6.412c-4.303,0-6.455-2.165-6.455-6.495c0-3.138,0.958-5.454,2.873-6.953
	c1.916-1.499,6.761-2.901,14.534-4.206V140.993L616.638,140.993z"/>
<path d="M631.963,114.843l-0.334,0.333v1.791l0.375,0.333l3.498,0.042c1.083,0,1.805,0.104,2.166,0.312
	c0.358,0.208,0.573,0.534,0.645,0.979c0.07,0.443,0.16,1.624,0.271,3.539c0.109,1.915,0.166,3.428,0.166,4.538v8.203
	c0,1.555-0.062,3.853-0.188,6.892s-0.235,4.831-0.333,5.372c-0.097,0.541-0.277,0.942-0.541,1.207
	c-0.265,0.266-0.569,0.438-0.916,0.521s-1.867,0.208-4.56,0.374l-0.376,0.333v1.749l0.376,0.375c3.47-0.223,6.801-0.333,9.992-0.333
	c3.222,0,6.565,0.11,10.036,0.333l0.333-0.375v-1.749l-0.375-0.333c-2.637-0.166-4.137-0.284-4.498-0.354
	c-0.358-0.068-0.664-0.229-0.916-0.479c-0.25-0.25-0.437-0.65-0.562-1.207c-0.125-0.556-0.243-2.49-0.354-5.811
	c-0.109-3.314-0.167-5.28-0.167-5.892v-7.244c0-2.222,0.062-3.67,0.188-4.354c0.125-0.68,0.493-1.416,1.104-2.207
	c0.611-0.791,1.557-1.638,2.831-2.54c1.277-0.899,2.432-1.498,3.457-1.79c1.027-0.292,2.265-0.438,3.706-0.438
	c1.807,0,3.359,0.327,4.664,0.979c1.306,0.651,2.347,1.567,3.123,2.747c0.778,1.183,1.242,2.492,1.396,3.937
	c0.15,1.443,0.229,3.804,0.229,7.079v5.454c0,5.804-0.181,10.509-0.541,14.116l0.499,0.458c3.332-0.223,5.359-0.333,6.08-0.333
	c1.25,0,3.638,0.11,7.163,0.333l0.333-0.333v-1.791l-0.333-0.333c-2.915,0-4.637-0.25-5.163-0.749
	c-0.528-0.5-0.819-2.067-0.875-4.706c-0.139-6.439-0.208-9.896-0.208-10.367v-7.328c0-2.359-0.194-4.346-0.583-5.955
	s-1.09-3.003-2.104-4.186c-1.016-1.181-2.515-2.199-4.497-3.061c-1.985-0.861-4.032-1.291-6.145-1.291
	c-1.25,0-2.471,0.14-3.665,0.417c-1.191,0.278-2.047,0.541-2.561,0.791c-0.516,0.25-1.062,0.639-1.646,1.166
	c-1.999,1.887-4.106,3.748-6.329,5.58c0.058-3.026,0.166-5.468,0.333-7.329l-0.792-0.541
	C641.734,113.163,637.266,114.204,631.963,114.843L631.963,114.843z M671.232,93.231h-2.166c-1.082,2.943-2.665,4.414-4.747,4.414
	c-1.108,0-3.096-0.708-5.955-2.124c-2.831-1.416-5.122-2.124-6.871-2.124c-2.082,0-3.97,0.891-5.663,2.665
	c-1.692,1.777-2.791,3.873-3.289,6.288l0.248,0.292h2.084c1.082-2.804,2.706-4.206,4.871-4.206c1.141,0,3.098,0.708,5.872,2.124
	c2.776,1.416,5.055,2.124,6.829,2.124c2.141,0,4.033-0.88,5.687-2.645c1.65-1.765,2.77-3.937,3.353-6.519L671.232,93.231z"/>
<path d="M689.889,122.962c1.305-3.109,2.055-4.811,2.249-5.103c0.192-0.29,0.95-0.673,2.269-1.144
	c1.319-0.474,2.784-0.708,4.396-0.708c3.081,0,5.538,0.84,7.371,2.519c1.832,1.683,2.748,4.574,2.748,8.684
	c-11.385,1.609-18.353,3.56-20.905,5.85s-3.831,5.477-3.831,9.558c0,2.055,0.424,3.804,1.27,5.247
	c0.85,1.441,2.068,2.566,3.665,3.373c1.599,0.805,3.507,1.207,5.728,1.207c1.806,0,3.471-0.319,4.997-0.958l9.079-7.079
	l-0.166,6.704l0.624,0.583c2.332-0.166,4.331-0.249,5.997-0.249c1.748,0,3.637,0.083,5.661,0.249l0.334-0.333v-1.666l-0.334-0.374
	l-2.372-0.208c-0.834-0.084-1.402-0.188-1.707-0.312c-0.308-0.124-0.576-0.367-0.812-0.729c-0.235-0.36-0.354-1.389-0.354-3.082
	v-12.407l0.207-8.37c0-2.388-0.473-4.477-1.416-6.267c-0.942-1.791-2.472-3.282-4.579-4.478c-2.11-1.193-4.764-1.79-7.955-1.79
	c-4.664,0-9.467,1.832-14.408,5.496v5.163l0.334,0.417l1.623,0.417L689.889,122.962z M708.92,140.993
	c-3.609,4.274-7.262,6.412-10.952,6.412c-4.306,0-6.455-2.165-6.455-6.495c0-3.138,0.958-5.454,2.873-6.953
	c1.916-1.499,6.761-2.901,14.534-4.206V140.993L708.92,140.993z"/>
<path d="M773.135,95.313c2.97,0,4.656,0.057,5.059,0.167c0.403,0.111,0.688,0.286,0.854,0.521c0.168,0.234,0.307,0.983,0.417,2.248
	c0.109,1.264,0.192,3.504,0.25,6.725l0.166,9.286c-3.192-1.749-6.553-2.624-10.077-2.624c-2.526,0-5.074,0.715-7.644,2.146
	c-2.566,1.431-4.94,2.811-7.119,4.144c-2.181,1.333-3.859,3.45-5.039,6.35c-1.182,2.902-1.771,5.92-1.771,9.059
	c0,3.08,0.569,6.086,1.707,9.015c1.139,2.93,3.048,5.337,5.727,7.226c2.681,1.888,5.936,2.831,9.767,2.831
	c2.357,0,4.179-0.318,5.456-0.957c0.691-0.501,2.165-1.75,4.414-3.748c1.525-1.359,3.054-2.597,4.58-3.706
	c-0.027,0.916-0.041,1.443-0.041,1.583c0,1.082-0.042,2.982-0.125,5.704l0.458,0.458c2.774-0.193,4.914-0.291,6.413-0.291
	c1.666,0,3.998,0.098,6.995,0.291l0.375-0.375v-1.582l-0.375-0.334c-2.666-0.222-4.281-0.457-4.852-0.707s-0.979-0.568-1.229-0.958
	s-0.425-1.63-0.521-3.728c-0.097-2.096-0.146-4.546-0.146-7.349v-27.274c0-9.604,0.151-16.004,0.459-19.195l-0.791-0.5
	c-3.639,1.442-8.106,2.471-13.409,3.081l-0.334,0.375v1.749L773.135,95.313z M779.88,128.501c0,4.219-0.083,7.12-0.249,8.702
	c-0.167,1.582-0.759,3.165-1.771,4.747c-1.014,1.581-2.305,2.84-3.873,3.77c-1.566,0.931-3.366,1.396-5.394,1.396
	c-3.722,0-6.811-1.472-9.268-4.414c-2.457-2.941-3.686-6.844-3.686-11.699c0-2.915,0.444-5.615,1.333-8.101
	c0.888-2.481,2.339-4.355,4.352-5.621c2.015-1.264,4.188-1.896,6.519-1.896c2.108,0,4.213,0.513,6.31,1.541
	c2.099,1.025,4.005,2.512,5.728,4.455V128.501L779.88,128.501z"/>
<path d="M832.977,144.574c-2,1.192-3.895,2.123-5.686,2.789c-1.791,0.667-3.657,1-5.603,1c-4.106,0-7.579-1.359-10.411-4.08
	c-2.832-2.722-4.272-6.954-4.33-12.7h13.367c1.027,0,3.138-0.069,6.33-0.208c3.192-0.141,5.732-0.416,7.62-0.833l0.458-0.458
	c0.084-0.805,0.125-1.638,0.125-2.498c0-2.748-0.514-5.344-1.541-7.787c-1.027-2.442-2.812-4.448-5.352-6.017
	c-2.541-1.567-5.477-2.354-8.809-2.354c-2.443,0-4.72,0.417-6.83,1.249c-2.109,0.833-4.106,1.943-5.996,3.331
	c-1.888,1.388-3.228,2.65-4.019,3.789s-1.548,2.881-2.271,5.226c-0.722,2.349-1.083,4.978-1.083,7.894
	c0,4.385,0.938,8.133,2.812,11.242c1.875,3.107,4.304,5.314,7.288,6.62c2.983,1.306,6.143,1.958,9.474,1.958
	c1.777,0,3.797-0.277,6.062-0.834c2.263-0.556,4.837-1.764,7.725-3.622l1.333-2.998L832.977,144.574z M809.718,117.758
	c1.847-2.359,4.422-3.54,7.726-3.54c3.025,0,5.414,1.048,7.162,3.146c1.749,2.097,2.623,5.295,2.623,9.598
	c0,0.359-0.014,0.875-0.041,1.541c-0.833,0.139-3.179,0.208-7.037,0.208c-1.611,0-4.089-0.058-7.435-0.167
	c-3.346-0.111-5.27-0.208-5.769-0.292C806.949,123.615,807.873,120.118,809.718,117.758z"/>
<path d="M324.934,262.827c-1.303,0-2.656,0-4.057,0c-12.824,0-25.472-0.05-37.942-0.149c-12.472-0.101-25.071-0.247-37.792-0.45
	c-0.803,0-1.352-0.174-1.653-0.525c-0.3-0.351-0.25-0.773,0.151-1.275c6.71-11.72,13.75-23.188,21.113-34.407
	c7.362-11.217,14.85-22.486,22.464-33.808c3.604-5.409,7.288-10.867,11.044-16.376c3.757-5.51,7.387-11.021,10.895-16.529
	c-0.301,0-0.651,0-1.052,0c-0.3,0-0.652,0.052-1.052,0.15c-0.202,0.102-0.551,0.149-1.051,0.149c-0.505,0-0.902,0-1.203,0h-32.758
	c-2.006,0-3.959,0.501-5.861,1.503c-1.904,1.001-3.733,2.278-5.484,3.83c-1.754,1.556-3.433,3.206-5.034,4.959
	c-1.604,1.753-3.155,3.381-4.657,4.882l-1.354,1.354c-0.502,0.503-1.127,0.627-1.878,0.377s-1.078-0.729-0.977-1.428
	c0.198-3.808,0.549-7.515,1.051-11.119c0.5-3.605,1.149-7.212,1.954-10.817l0.451-2.103c0.199-0.902,0.95-1.253,2.254-1.056
	c2.202,0.504,4.508,0.93,6.912,1.276c2.404,0.354,4.658,0.527,6.762,0.527h60.856c0.803,0,1.375,0.2,1.729,0.602
	c0.35,0.4,0.324,0.854-0.075,1.354c-6.412,11.922-13.726,24.064-21.938,36.436c-8.217,12.373-16.479,24.567-24.793,36.587
	c-3.308,4.81-6.538,9.416-9.692,13.822c-3.156,4.41-6.288,9.017-9.392,13.824c0.398,0.1,0.825,0.125,1.276,0.071
	c0.451-0.047,0.925-0.122,1.429-0.224c0.301-0.099,0.699-0.15,1.201-0.15c0.5,0,0.951,0,1.353,0l38.469-0.148
	c1.901,0,3.854-0.525,5.86-1.577c2.003-1.053,3.881-2.38,5.635-3.983c1.751-1.601,3.354-3.353,4.808-5.258
	c1.451-1.901,2.68-3.705,3.684-5.409c0.5-0.602,1.176-0.799,2.027-0.602c0.852,0.202,1.277,0.652,1.277,1.353
	c-0.202,3.606-0.502,7.19-0.901,10.743c-0.399,3.56-1.2,7.19-2.402,10.896"/>
<path d="M391.349,253.51l-1.201,0.602c-0.601,0.202-1.754,0.303-3.457,0.303c-1.704,0-3.531-0.023-5.485-0.075
	c-1.951-0.05-3.807-0.101-5.559-0.15c-1.753-0.049-2.979-0.075-3.681-0.075c-1.604,0-3.207,0.026-4.811,0.075
	c-1.603,0.052-3.207,0.075-4.808,0.075c-3.607,0-7.213,0.025-10.82,0.075c-3.604,0.052-7.164-0.023-10.668-0.228
	c-0.9-0.1-1.329-0.574-1.277-1.428c0.051-0.849,0.525-1.277,1.429-1.277c2.804-0.099,4.659-0.978,5.56-2.629
	c0.901-1.651,1.354-3.831,1.354-6.535v-61.604c0-1.703-0.479-2.829-1.43-3.381c-0.953-0.55-1.979-0.925-3.081-1.128
	c-0.802-0.199-1.628-0.398-2.479-0.603c-0.852-0.198-1.678-0.549-2.479-1.051c-0.805-0.397-1.054-0.902-0.753-1.503
	c0.303-0.602,0.901-0.902,1.805-0.902c0.899,0,2.078,0.025,3.529,0.075c1.451,0.052,3.081,0.075,4.886,0.075
	c2.902,0.102,6.06,0.176,9.466,0.227c3.404,0.054,6.86,0.074,10.369,0.074c5.009,0,9.563-0.099,13.674-0.301
	c4.105-0.199,6.86-0.549,8.266-1.05c0.699-0.201,1.3-0.152,1.805,0.146c0.499,0.303,0.697,0.702,0.6,1.202
	c-0.202,1.904-0.502,3.656-0.901,5.259c-0.399,1.604-0.803,3.207-1.202,4.81c-0.201,0.702-0.353,1.353-0.448,1.954
	c-0.103,0.601-0.252,1.202-0.451,1.803c-0.202,0.702-0.804,1.052-1.803,1.052c-1.001,0-1.556-0.397-1.653-1.202
	c-0.102-1.7-0.503-3.055-1.202-4.058c-0.702-0.999-1.604-1.775-2.705-2.327c-1.104-0.549-2.354-0.927-3.757-1.128
	c-1.404-0.199-2.806-0.3-4.207-0.3c-0.803,0-1.578,0.024-2.33,0.075c-0.751,0.052-1.528,0.075-2.329,0.075
	c-0.702,0-1.454,0.024-2.254,0.072c-0.803,0.054-1.604,0.075-2.405,0.075h-2.704v28.699h18.032c0.501,0,1.15-0.174,1.954-0.526
	c0.799-0.35,1.652-0.677,2.555-0.977h-0.148c0.8-0.399,1.526-0.952,2.179-1.653c0.651-0.699,1.277-1.149,1.878-1.353
	c0.7-0.198,1.277-0.124,1.729,0.226c0.451,0.354,0.625,0.777,0.525,1.276c-0.201,1.304-0.376,2.854-0.525,4.657
	c-0.149,1.805-0.325,3.356-0.525,4.657c-0.203,1.202-0.399,2.405-0.601,3.606c-0.202,1.201-0.401,2.505-0.603,3.906
	c-0.102,0.503-0.451,0.853-1.052,1.051c-0.602,0.202-1.153,0.102-1.652-0.3c-1.2-0.699-1.778-1.178-1.729-1.429
	c0.049-0.249,0.021-0.625-0.076-1.127c-0.3-0.9-0.626-1.752-0.977-2.555c-0.354-0.801-0.678-1.301-0.978-1.502
	c-0.503-0.399-1.502-0.728-3.006-0.979c-1.503-0.247-3.181-0.425-5.034-0.523c-1.854-0.102-3.682-0.15-5.483-0.15
	c-1.805,0-3.308,0-4.51,0h-1.953v29.149c1.603,2.205,3.854,3.808,6.764,4.809c2.902,1.001,5.659,1.501,8.264,1.501
	c3.205,0,6.162-0.771,8.866-2.328c2.705-1.553,4.508-4.079,5.409-7.588c0.099-0.3,0.35-0.524,0.752-0.677
	c0.397-0.15,0.801-0.198,1.202-0.15c0.396,0.054,0.773,0.202,1.127,0.452c0.35,0.25,0.475,0.525,0.376,0.824L391.349,253.51z"/>
<path d="M501.043,175.229c-0.901,0.104-1.652,0.251-2.256,0.451h0.15c-1.202,0.301-2.404,0.702-3.605,1.202
	c-1.201,0.502-1.805,1.302-1.805,2.402c0,3.206,0,6.361,0,9.468c0,3.005,0.05,6.062,0.15,9.165c0,2.904,0.021,6.086,0.075,9.541
	c0.05,3.455,0.072,6.588,0.072,9.391c0,6.412-0.101,12.748-0.3,19.007c-0.201,6.262-0.602,12.545-1.202,18.856
	c-0.102,0.601-0.448,0.978-1.052,1.126c-0.602,0.149-1.201,0.075-1.804-0.226c-11.22-8.416-21.814-17.401-31.781-26.971
	c-9.969-9.565-19.759-19.207-29.376-28.924h0.149l-7.813-7.662c-0.101,0.9-0.148,1.803-0.148,2.705c0,0.898,0,1.854,0,2.854
	c0,3.812,0.073,7.564,0.226,11.271c0.149,3.707,0.323,7.462,0.526,11.268c0.197,3.707,0.35,7.415,0.448,11.119
	c0.101,3.708,0.15,7.464,0.15,11.271c0,1.704,0.149,3.082,0.451,4.133c0.301,1.051,0.725,1.828,1.274,2.329
	c0.552,0.502,1.151,0.852,1.805,1.052c0.648,0.202,1.328,0.353,2.027,0.45c0.902,0.201,1.854,0.377,2.855,0.524
	c1,0.149,1.953,0.577,2.854,1.277c0.804,0.4,1.054,0.9,0.752,1.501c-0.301,0.604-0.899,0.902-1.804,0.902
	c-1.705-0.102-3.455-0.125-5.259-0.075c-1.803,0.052-3.557,0.075-5.26,0.075h-5.26c-2.307,0-4.584-0.051-6.838-0.151
	c-2.255-0.097-4.434-0.396-6.535-0.897c-0.901-0.2-1.277-0.7-1.127-1.505c0.147-0.802,0.677-1.2,1.576-1.2h1.805
	c1.701,0.201,3.154-0.228,4.356-1.277s1.802-2.577,1.802-4.584v-70.918c0-0.801,0.251-1.478,0.752-2.028
	c0.5-0.549,1.002-1.023,1.506-1.428c0.3-0.197,0.676-0.273,1.126-0.224c0.449,0.052,0.772,0.175,0.978,0.375
	c11.521,10.615,22.938,21.312,34.26,32.076c11.319,10.771,22.592,21.662,33.812,32.683c0.099-3.104,0.099-6.136,0-9.091
	c-0.104-2.953-0.201-5.984-0.302-9.092c-0.199-2.503-0.353-5.157-0.449-7.964c-0.103-2.803-0.15-5.458-0.15-7.964
	c0-1.601,0.024-3.155,0.075-4.657c0.05-1.503,0.075-3.055,0.075-4.656v-9.165c0-1.603-0.202-2.879-0.604-3.83
	c-0.399-0.952-0.899-1.654-1.502-2.104c-0.601-0.451-1.255-0.751-1.953-0.9c-0.702-0.15-1.402-0.274-2.104-0.374
	c-1.904-0.2-3.456-0.65-4.658-1.354c-0.701-0.302-0.9-0.752-0.602-1.353c0.302-0.604,0.851-0.902,1.651-0.902l5.411-0.15
	c3.703-0.098,7.362-0.072,10.969,0.075c3.605,0.15,7.212,0.327,10.818,0.525L501.043,175.229L501.043,175.229z"/>
<path d="M595.559,254.262c-2.405,0.102-4.861,0.148-7.363,0.148c-1.804,0-3.558-0.021-5.26-0.073
	c-1.705-0.052-3.456-0.125-5.26-0.228c-0.803,0-1.328-0.25-1.577-0.752c-0.251-0.499-0.075-0.999,0.523-1.503l1.354-1.65
	c-2.005-4.706-3.959-9.216-5.86-13.521c-1.902-4.305-3.905-8.814-6.01-13.523h-24.192c-0.804,1.604-1.703,3.658-2.705,6.16
	c-1.004,2.505-2.006,5.013-3.006,7.515c-1.003,2.505-1.83,4.835-2.479,6.984c-0.651,2.155-0.977,3.684-0.977,4.582
	c0,1.104,0.649,1.831,1.951,2.179c1.303,0.354,2.455,0.629,3.457,0.827c1.001,0.104,1.479,0.577,1.43,1.43
	c-0.054,0.853-0.578,1.275-1.577,1.275l-26.448-0.45l0.601-2.703c1,0.3,2.054,0.25,3.156-0.15c1.104-0.398,2.152-1.027,3.155-1.878
	c1.001-0.853,1.928-1.826,2.779-2.931c0.851-1.103,1.524-2.104,2.026-3.006c2.003-4.809,4.081-9.74,6.236-14.8
	c2.153-5.058,4.229-9.992,6.236-14.8c2.901-7.112,5.835-14.173,8.791-21.187c2.952-7.012,5.935-14.023,8.938-21.033
	c0.399-0.701,1.15-0.902,2.255-0.604c0.698,0.303,1.4,0.952,2.104,1.953c0.7,1.002,1.4,2.13,2.104,3.381
	c0.699,1.254,1.354,2.58,1.952,3.982c0.604,1.404,1.151,2.655,1.653,3.756v-0.151c0.301,0.702,0.55,1.329,0.751,1.882
	c0.2,0.552,0.399,0.976,0.602,1.274v-0.148l6.612,15.477c3.104,7.212,6.236,14.498,9.392,21.86
	c3.156,7.36,6.638,14.498,10.444,21.411c1.201,2.306,2.854,3.809,4.958,4.507c2.104,0.701,4.257,1.152,6.461,1.352v2.705
	C600.366,254.012,597.962,254.164,595.559,254.262z M553.784,191.457c-1.705,4.407-3.229,8.59-4.583,12.547
	c-1.354,3.958-2.979,8.188-4.884,12.693H563.4L553.784,191.457z"/>
<path d="M643.039,254.863c-1.803-0.099-3.579-0.099-5.334,0c-1.754,0.104-3.58,0.104-5.482,0l-5.71-0.148
	c-0.803,0-1.805,0.052-3.006,0.148c-1.202,0.104-2.479,0.203-3.831,0.302c-1.354,0.101-2.655,0.127-3.907,0.073
	c-1.254-0.05-2.229-0.224-2.931-0.523c-0.901-0.3-1.152-0.924-0.75-1.878c0.396-0.951,1.051-1.326,1.952-1.126
	c0.5,0.198,0.926,0.224,1.275,0.071c0.353-0.146,0.625-0.224,0.827-0.224c0.801,0,1.477-0.325,2.028-0.979
	c0.549-0.649,0.977-1.479,1.276-2.479c0.302-0.999,0.524-2.002,0.678-3.006c0.147-0.999,0.226-1.9,0.226-2.704v-61.152
	c0-2.001-0.827-3.429-2.479-4.279c-1.653-0.853-3.383-1.376-5.186-1.578c-1.003-0.1-1.479-0.526-1.428-1.277
	c0.049-0.751,0.574-1.176,1.577-1.277c2.403-0.196,4.81-0.196,7.213,0c2.405,0.202,4.757,0.304,7.062,0.304s4.559-0.102,6.764-0.304
	c2.202-0.196,4.456-0.196,6.762,0c0.902,0.104,1.376,0.504,1.428,1.202c0.049,0.702-0.377,1.154-1.275,1.354
	c-2.007,0.301-3.707,0.751-5.109,1.353c-1.404,0.603-2.104,2.104-2.104,4.507v60.702c0,0.402,0.073,1.004,0.227,1.804
	c0.15,0.804,0.324,1.652,0.525,2.557c0.198,0.897,0.449,1.753,0.752,2.554c0.3,0.803,0.549,1.354,0.751,1.652
	c0.301,0.101,0.752,0.201,1.353,0.301c0.603,0.102,1.15,0.15,1.653,0.15c1.101,0,2.077,0.073,2.93,0.225
	c0.851,0.15,1.677,0.578,2.479,1.276L643.039,254.863z"/>
<path d="M742.366,232.777c-2.905,5.512-6.812,9.97-11.72,13.372c-4.911,3.406-10.621,5.858-17.131,7.361
	c-6.514,1.504-13.325,2.255-20.438,2.255c-2.906,0-5.838-0.075-8.791-0.226c-2.954-0.151-5.887-0.325-8.789-0.525
	c-3.208-0.2-6.562-0.401-10.068-0.602c-3.508-0.2-6.813-0.249-9.917-0.15c-1.003,0-1.554-0.4-1.652-1.202
	c-0.102-0.801,0.351-1.301,1.354-1.502c3.004-0.5,4.932-1.402,5.784-2.705c0.851-1.301,1.274-3.656,1.274-7.062v-61.003
	c0-2.002-0.601-3.255-1.803-3.757c-1.202-0.499-2.403-0.852-3.605-1.052c-0.9-0.2-1.777-0.426-2.631-0.676
	c-0.852-0.249-1.427-0.676-1.727-1.278c-0.203-0.5-0.151-0.925,0.15-1.275c0.3-0.352,0.8-0.525,1.502-0.525
	c1.399,0,2.778,0.026,4.132,0.075c1.353,0.052,2.729,0.127,4.133,0.226c1.803,0.104,3.705,0.202,5.71,0.3
	c2.003,0.104,3.854,0.151,5.561,0.151c4.307,0,8.663-0.151,13.073-0.451c2.104-0.099,4.38-0.197,6.836-0.301
	c2.454-0.099,4.733-0.15,6.838-0.15c4.007,0,8.564,0.827,13.676,2.479c5.108,1.652,9.967,3.907,14.574,6.762
	c4.606,2.854,8.591,6.235,11.945,10.144c3.356,3.905,5.283,8.062,5.786,12.471c0.199,1.404,0.301,2.855,0.301,4.357
	c0,1.401,0,2.805,0,4.207C746.725,220.507,745.271,227.268,742.366,232.777z M729.368,199.797
	c-2.455-4.858-5.733-8.866-9.842-12.021c-4.107-3.156-8.866-5.534-14.274-7.137c-5.409-1.602-11.07-2.405-16.979-2.405
	c-2.005,0-4.007,0.104-6.011,0.302c-2.004,0.201-4.008,0.603-6.011,1.201v57.997c0,2.807,0.376,5.011,1.127,6.612
	c0.752,1.603,1.853,2.804,3.307,3.604c1.45,0.806,3.179,1.305,5.184,1.503c2.005,0.202,4.259,0.302,6.764,0.302
	c5.309,0,10.418-0.603,15.327-1.805c4.905-1.2,9.216-3.129,12.923-5.782c3.705-2.652,6.662-6.061,8.864-10.219
	c2.201-4.154,3.308-9.239,3.308-15.251C733.05,210.29,731.822,204.656,729.368,199.797z"/>
<path d="M828.02,254.262c-2.404,0.102-4.86,0.148-7.364,0.148c-1.802,0-3.556-0.021-5.259-0.073
	c-1.704-0.052-3.457-0.125-5.26-0.228c-0.803,0-1.328-0.25-1.578-0.752c-0.251-0.499-0.074-0.999,0.527-1.503l1.353-1.65
	c-2.006-4.706-3.96-9.216-5.861-13.521c-1.901-4.305-3.904-8.814-6.011-13.523h-24.19c-0.805,1.604-1.704,3.658-2.704,6.16
	c-1.005,2.505-2.008,5.013-3.008,7.515c-1.003,2.505-1.827,4.835-2.479,6.984c-0.652,2.155-0.978,3.684-0.978,4.582
	c0,1.104,0.649,1.831,1.953,2.179c1.303,0.354,2.452,0.629,3.455,0.827c1,0.104,1.479,0.577,1.429,1.43
	c-0.053,0.853-0.577,1.275-1.577,1.275l-26.446-0.45l0.601-2.703c1,0.3,2.055,0.25,3.156-0.15c1.103-0.398,2.152-1.027,3.155-1.878
	c1-0.853,1.927-1.826,2.779-2.931c0.85-1.103,1.524-2.104,2.027-3.006c2.002-4.809,4.08-9.74,6.235-14.8
	c2.153-5.058,4.23-9.992,6.236-14.8c2.902-7.112,5.835-14.173,8.791-21.187c2.951-7.012,5.936-14.023,8.938-21.033
	c0.399-0.701,1.15-0.902,2.254-0.604c0.7,0.303,1.401,0.952,2.104,1.953c0.7,1.002,1.401,2.13,2.104,3.381
	c0.699,1.254,1.354,2.58,1.953,3.982c0.603,1.404,1.15,2.655,1.653,3.756v-0.151c0.3,0.702,0.549,1.329,0.751,1.882
	c0.199,0.552,0.397,0.976,0.602,1.274v-0.148l6.611,15.477c3.104,7.212,6.234,14.498,9.393,21.86
	c3.154,7.36,6.636,14.498,10.442,21.41c1.202,2.307,2.854,3.81,4.959,4.508c2.104,0.7,4.256,1.152,6.461,1.352v2.705
	C832.828,254.012,830.423,254.164,828.02,254.262z M786.245,191.457c-1.702,4.407-3.229,8.59-4.583,12.547
	c-1.352,3.958-2.98,8.188-4.884,12.693h19.083L786.245,191.457z"/>
</svg>
